<?xml version="1.0" encoding="iso-8859-1"?>
<!-- Generator: Adobe Illustrator 19.0.0, SVG Export Plug-In . SVG Version: 6.00 Build 0)  -->
<svg xmlns="http://www.w3.org/2000/svg" xmlns:xlink="http://www.w3.org/1999/xlink" version="1.1" id="Layer_1" x="0px" y="0px" viewBox="0 0 512 512" style="enable-background:new 0 0 512 512;" xml:space="preserve">
<g>
	<g>
		<path d="M424.086,97.313c-12.5,0-24.704,2.635-35.94,7.676V52.527c0-9.452-7.689-17.14-17.14-17.14H17.14    C7.689,35.387,0,43.075,0,52.527V415.24c0,33.842,27.532,61.374,61.374,61.374h265.4c33.842,0,61.374-27.532,61.374-61.374    v-25.921c11.233,5.039,23.433,7.674,35.94,7.674c48.476,0,87.914-39.437,87.914-87.914V185.227    C512,136.75,472.563,97.313,424.086,97.313z M371.559,415.24c0,24.695-20.091,44.786-44.786,44.786h-265.4    c-24.695,0-44.786-20.091-44.786-44.786V52.527c0-0.304,0.249-0.553,0.553-0.553h230.566v156.357l-32.958,32.958    c-1.555,1.556-2.428,3.665-2.428,5.865v70.773c0,14.329,11.658,25.987,25.987,25.987h35.387c14.329,0,25.987-11.658,25.987-25.987    v-70.773c0-2.2-0.874-4.308-2.428-5.865l-32.958-32.958V51.974h106.713c0.304,0,0.553,0.249,0.553,0.553V415.24z M256,223.495    l27.093,27.093v67.339c0,5.183-4.217,9.4-9.4,9.4h-35.387c-5.183,0-9.4-4.216-9.4-9.4v-67.339L256,223.495z M388.147,185.227    c0-19.818,16.122-35.94,35.94-35.94c19.818,0,35.94,16.122,35.94,35.94V309.08c0,19.818-16.122,35.94-35.94,35.94    c-19.818,0-35.94-16.122-35.94-35.94V185.227z M495.413,309.08c0,39.329-31.997,71.326-71.326,71.326    c-12.728,0-25.061-3.353-35.94-9.714v-23.357c9.404,8.84,22.046,14.272,35.94,14.272c28.963,0,52.527-23.564,52.527-52.527    V185.227c0-28.963-23.564-52.527-52.527-52.527c-13.894,0-26.536,5.433-35.94,14.272v-23.356    c10.878-6.361,23.218-9.715,35.94-9.715c39.329,0,71.326,31.997,71.326,71.326V309.08z"/>
	</g>
</g>
<g>
</g>
<g>
</g>
<g>
</g>
<g>
</g>
<g>
</g>
<g>
</g>
<g>
</g>
<g>
</g>
<g>
</g>
<g>
</g>
<g>
</g>
<g>
</g>
<g>
</g>
<g>
</g>
<g>
</g>
</svg>
