<?xml version="1.0" encoding="iso-8859-1"?>
<!-- Generator: Adobe Illustrator 19.0.0, SVG Export Plug-In . SVG Version: 6.00 Build 0)  -->
<svg xmlns="http://www.w3.org/2000/svg" xmlns:xlink="http://www.w3.org/1999/xlink" version="1.1" id="Layer_1" x="0px" y="0px" viewBox="0 0 512 512" style="enable-background:new 0 0 512 512;" xml:space="preserve">
<g>
	<g>
		<path d="M397.546,17.693h-0.553v-9.4c0-4.58-3.712-8.294-8.294-8.294s-8.294,3.713-8.294,8.294v9.4H352.76v-9.4    c0-4.58-3.712-8.294-8.294-8.294c-4.581,0-8.294,3.713-8.294,8.294v9.4h-27.646v-9.4c0-4.58-3.712-8.294-8.294-8.294    c-4.581,0-8.294,3.713-8.294,8.294v9.4h-27.646v-9.4C264.294,3.713,260.581,0,256,0s-8.294,3.713-8.294,8.294v9.4H220.06v-9.4    c0-4.58-3.712-8.294-8.294-8.294s-8.294,3.713-8.294,8.294v9.4h-27.646v-9.4c0-4.58-3.712-8.294-8.294-8.294    c-4.581,0-8.294,3.713-8.294,8.294v9.4h-27.646v-9.4c0-4.58-3.712-8.294-8.294-8.294c-4.581,0-8.294,3.713-8.294,8.294v9.4h-0.553    c-24.085,0-43.68,19.595-43.68,43.68V468.32c0,24.085,19.595,43.68,43.68,43.68h283.093c24.085,0,43.68-19.595,43.68-43.68V61.374    C441.227,37.289,421.631,17.693,397.546,17.693z M424.639,468.32c0,14.939-12.153,27.093-27.093,27.093H114.454    c-14.94,0-27.093-12.154-27.093-27.093V87.361h337.279V468.32z M424.639,70.773H87.361v-9.4c0-14.939,12.153-27.093,27.093-27.093    h0.553v9.4c0,4.58,3.712,8.294,8.294,8.294c4.581,0,8.294-3.713,8.294-8.294v-9.4h27.646v9.4c0,4.58,3.712,8.294,8.294,8.294    c4.581,0,8.294-3.713,8.294-8.294v-9.4h27.646v9.4c0,4.58,3.712,8.294,8.294,8.294s8.294-3.713,8.294-8.294v-9.4h27.646v9.4    c0,4.58,3.712,8.294,8.294,8.294s8.294-3.713,8.294-8.294v-9.4h27.646v9.4c0,4.58,3.712,8.294,8.294,8.294    c4.581,0,8.294-3.713,8.294-8.294v-9.4h27.646v9.4c0,4.58,3.712,8.294,8.294,8.294c4.581,0,8.294-3.713,8.294-8.294v-9.4h27.646    v9.4c0,4.58,3.712,8.294,8.294,8.294s8.294-3.713,8.294-8.294v-9.4h0.553c14.94,0,27.093,12.154,27.093,27.093V70.773z"/>
	</g>
</g>
<g>
	<g>
		<path d="M397.546,106.16H114.454c-4.581,0-8.294,3.713-8.294,8.294V468.32c0,4.58,3.712,8.294,8.294,8.294h283.093    c4.581,0,8.294-3.713,8.294-8.294V114.454C405.84,109.873,402.128,106.16,397.546,106.16z M389.253,460.026H122.747V122.747    h266.505V460.026z"/>
	</g>
</g>
<g>
	<g>
		<path d="M238.307,318.479H149.84c-4.581,0-8.294,3.713-8.294,8.294v106.16c0,4.58,3.712,8.294,8.294,8.294h88.467    c4.581,0,8.294-3.713,8.294-8.294v-106.16C246.6,322.193,242.888,318.479,238.307,318.479z M220.599,335.067l-26.526,31.831    l-26.527-31.831H220.599z M158.134,349.68l25.143,30.173l-25.143,30.171V349.68z M167.548,424.639l26.527-31.831l26.526,31.831    H167.548z M230.013,410.025l-25.143-30.171l25.143-30.172V410.025z"/>
	</g>
</g>
<g>
	<g>
		<path d="M362.16,318.479h-88.466c-4.581,0-8.294,3.713-8.294,8.294v106.16c0,4.58,3.712,8.294,8.294,8.294h88.466    c4.581,0,8.294-3.713,8.294-8.294v-106.16C370.454,322.193,366.741,318.479,362.16,318.479z M344.453,335.067l-26.527,31.831    l-26.526-31.831H344.453z M281.987,349.68l25.143,30.173l-25.143,30.173V349.68z M291.4,424.639l26.527-31.831l26.526,31.831    H291.4z M353.866,410.025l-25.143-30.171l25.143-30.173V410.025z"/>
	</g>
</g>
<g>
	<g>
		<path d="M362.16,212.32H149.84c-4.581,0-8.294,3.713-8.294,8.294v70.773c0,4.58,3.712,8.294,8.294,8.294h212.32    c4.581,0,8.294-3.713,8.294-8.294v-70.773C370.454,216.033,366.741,212.32,362.16,212.32z M311.051,228.907L256,247.257    l-55.051-18.35H311.051z M158.134,232.121L229.772,256l-71.638,23.879V232.121z M200.95,283.093l55.05-18.35l55.051,18.35H200.95z     M353.866,279.879L282.228,256l71.638-23.879V279.879z"/>
	</g>
</g>
<g>
	<g>
		<path d="M362.16,176.933H149.84c-4.581,0-8.294,3.713-8.294,8.294c0,4.58,3.712,8.294,8.294,8.294h212.32    c4.581,0,8.294-3.713,8.294-8.294C370.454,180.646,366.741,176.933,362.16,176.933z"/>
	</g>
</g>
<g>
	<g>
		<path d="M309.08,141.546H202.92c-4.581,0-8.294,3.713-8.294,8.294c0,4.58,3.712,8.294,8.294,8.294h106.16    c4.581,0,8.294-3.713,8.294-8.294C317.374,145.26,313.661,141.546,309.08,141.546z"/>
	</g>
</g>
<g>
</g>
<g>
</g>
<g>
</g>
<g>
</g>
<g>
</g>
<g>
</g>
<g>
</g>
<g>
</g>
<g>
</g>
<g>
</g>
<g>
</g>
<g>
</g>
<g>
</g>
<g>
</g>
<g>
</g>
</svg>
