<?xml version="1.0" encoding="iso-8859-1"?>
<!-- Generator: Adobe Illustrator 19.0.0, SVG Export Plug-In . SVG Version: 6.00 Build 0)  -->
<svg xmlns="http://www.w3.org/2000/svg" xmlns:xlink="http://www.w3.org/1999/xlink" version="1.1" id="Layer_1" x="0px" y="0px" viewBox="0 0 512 512" style="enable-background:new 0 0 512 512;" xml:space="preserve">
<g>
	<g>
		<path d="M468.32,70.773H43.68C19.595,70.773,0,90.369,0,114.454v283.093c0,24.085,19.595,43.68,43.68,43.68H468.32    c24.085,0,43.68-19.595,43.68-43.68V114.454C512,90.369,492.405,70.773,468.32,70.773z M495.413,397.546    c0,14.94-12.153,27.093-27.093,27.093H43.68c-14.94,0-27.093-12.153-27.093-27.093V114.454c0-14.94,12.153-27.093,27.093-27.093    H468.32c14.94,0,27.093,12.153,27.093,27.093V397.546z"/>
	</g>
</g>
<g>
	<g>
		<path d="M459.473,115.006H114.454c-4.581,0-8.294,3.712-8.294,8.294v265.4c0,4.581,3.712,8.294,8.294,8.294h345.019    c4.581,0,8.294-3.712,8.294-8.294V123.3C467.767,118.719,464.054,115.006,459.473,115.006z M451.179,380.406H122.747V131.594    h328.432V380.406z"/>
	</g>
</g>
<g>
	<g>
		<path d="M61.374,230.013c-14.329,0-25.987,11.658-25.987,25.987s11.658,25.987,25.987,25.987S87.361,270.329,87.361,256    S75.703,230.013,61.374,230.013z M61.374,265.4c-5.183,0-9.4-4.216-9.4-9.4s4.217-9.4,9.4-9.4s9.4,4.217,9.4,9.4    S66.557,265.4,61.374,265.4z"/>
	</g>
</g>
<g>
	<g>
		<path d="M79.067,194.626H43.68c-4.581,0-8.294,3.712-8.294,8.294c0,4.581,3.712,8.294,8.294,8.294h35.387    c4.581,0,8.294-3.712,8.294-8.294C87.361,198.339,83.648,194.626,79.067,194.626z"/>
	</g>
</g>
<g>
	<g>
		<path d="M79.067,159.24H43.68c-4.581,0-8.294,3.712-8.294,8.294c0,4.581,3.712,8.294,8.294,8.294h35.387    c4.581,0,8.294-3.712,8.294-8.294C87.361,162.952,83.648,159.24,79.067,159.24z"/>
	</g>
</g>
<g>
	<g>
		<path d="M79.067,123.853H43.68c-4.581,0-8.294,3.712-8.294,8.294c0,4.581,3.712,8.294,8.294,8.294h35.387    c4.581,0,8.294-3.712,8.294-8.294C87.361,127.565,83.648,123.853,79.067,123.853z"/>
	</g>
</g>
<g>
	<g>
		<path d="M79.067,371.559H43.68c-4.581,0-8.294,3.712-8.294,8.294c0,4.581,3.712,8.294,8.294,8.294h35.387    c4.581,0,8.294-3.712,8.294-8.294C87.361,375.272,83.648,371.559,79.067,371.559z"/>
	</g>
</g>
<g>
	<g>
		<path d="M79.067,336.173H43.68c-4.581,0-8.294,3.712-8.294,8.294c0,4.581,3.712,8.294,8.294,8.294h35.387    c4.581,0,8.294-3.712,8.294-8.294C87.361,339.885,83.648,336.173,79.067,336.173z"/>
	</g>
</g>
<g>
	<g>
		<path d="M79.067,300.786H43.68c-4.581,0-8.294,3.712-8.294,8.294s3.712,8.294,8.294,8.294h35.387c4.581,0,8.294-3.712,8.294-8.294    S83.648,300.786,79.067,300.786z"/>
	</g>
</g>
<g>
	<g>
		<path d="M167.538,345.019h-9.404v-9.4c0-4.581-3.712-8.294-8.294-8.294c-4.581,0-8.294,3.712-8.294,8.294v17.693    c0,4.581,3.712,8.294,8.294,8.294h17.698c4.581,0,8.294-3.712,8.294-8.294S172.119,345.019,167.538,345.019z"/>
	</g>
</g>
<g>
	<g>
		<path d="M424.086,327.326c-4.581,0-8.294,3.712-8.294,8.294v9.4h-9.397c-4.581,0-8.294,3.712-8.294,8.294s3.712,8.294,8.294,8.294    h17.691c4.581,0,8.294-3.712,8.294-8.294V335.62C432.38,331.038,428.668,327.326,424.086,327.326z"/>
	</g>
</g>
<g>
	<g>
		<path d="M424.086,150.393h-17.698c-4.581,0-8.294,3.712-8.294,8.294s3.713,8.294,8.294,8.294h9.404v9.396    c0,4.581,3.712,8.294,8.294,8.294c4.581,0,8.294-3.712,8.294-8.294v-17.69C432.38,154.105,428.668,150.393,424.086,150.393z"/>
	</g>
</g>
<g>
	<g>
		<path d="M167.531,150.393H149.84c-4.581,0-8.294,3.712-8.294,8.294v17.69c0,4.581,3.712,8.294,8.294,8.294    c4.581,0,8.294-3.712,8.294-8.294v-9.396h9.397c4.581,0,8.294-3.712,8.294-8.294S172.113,150.393,167.531,150.393z"/>
	</g>
</g>
<g>
</g>
<g>
</g>
<g>
</g>
<g>
</g>
<g>
</g>
<g>
</g>
<g>
</g>
<g>
</g>
<g>
</g>
<g>
</g>
<g>
</g>
<g>
</g>
<g>
</g>
<g>
</g>
<g>
</g>
</svg>
