<?xml version="1.0" encoding="iso-8859-1"?>
<!-- Generator: Adobe Illustrator 19.0.0, SVG Export Plug-In . SVG Version: 6.00 Build 0)  -->
<svg xmlns="http://www.w3.org/2000/svg" xmlns:xlink="http://www.w3.org/1999/xlink" version="1.1" id="Layer_1" x="0px" y="0px" viewBox="0 0 512 512" style="enable-background:new 0 0 512 512;" xml:space="preserve">
<g>
	<g>
		<path d="M256,0C168.5,0,97.313,71.187,97.313,158.687v194.626C97.313,440.813,168.5,512,256,512s158.687-71.187,158.687-158.687    V158.687C414.687,71.187,343.5,0,256,0z M398.099,353.313c0,78.354-63.746,142.099-142.099,142.099    s-142.099-63.746-142.099-142.099V158.687c0-78.354,63.746-142.099,142.099-142.099s142.099,63.746,142.099,142.099V353.313z"/>
	</g>
</g>
<g>
	<g>
		<path d="M264.294,107.524V70.22c0-4.581-3.713-8.294-8.294-8.294c-4.58,0-8.294,3.712-8.294,8.294v37.304    c-10.273,3.47-17.693,13.193-17.693,24.622s7.42,21.152,17.693,24.622v37.304c0,4.581,3.713,8.294,8.294,8.294    c4.58,0,8.294-3.712,8.294-8.294v-37.304c10.273-3.47,17.693-13.193,17.693-24.622S274.567,110.995,264.294,107.524z M256,141.546    c-5.183,0-9.4-4.217-9.4-9.4s4.217-9.4,9.4-9.4s9.4,4.216,9.4,9.4S261.183,141.546,256,141.546z"/>
	</g>
</g>
<g>
</g>
<g>
</g>
<g>
</g>
<g>
</g>
<g>
</g>
<g>
</g>
<g>
</g>
<g>
</g>
<g>
</g>
<g>
</g>
<g>
</g>
<g>
</g>
<g>
</g>
<g>
</g>
<g>
</g>
</svg>
