<?xml version="1.0" encoding="iso-8859-1"?>
<!-- Generator: Adobe Illustrator 19.0.0, SVG Export Plug-In . SVG Version: 6.00 Build 0)  -->
<svg xmlns="http://www.w3.org/2000/svg" xmlns:xlink="http://www.w3.org/1999/xlink" version="1.1" id="Layer_1" x="0px" y="0px" viewBox="0 0 512 512" style="enable-background:new 0 0 512 512;" xml:space="preserve">
<g>
	<g>
		<path d="M468.32,194.626H264.294V176.38c0-19.207-15.626-34.834-34.834-34.834H34.834c-10.061,0-18.246-8.185-18.246-18.246    s8.185-18.246,18.246-18.246H388.7c4.58,0,8.294-3.712,8.294-8.294s-3.713-8.294-8.294-8.294H34.834    C15.627,88.466,0,104.093,0,123.3c0,19.207,15.627,34.834,34.834,34.834H229.46c10.061,0,18.246,8.185,18.246,18.246v18.246H43.68    c-24.085,0-43.68,19.595-43.68,43.68v141.546c0,24.085,19.595,43.68,43.68,43.68H468.32c24.085,0,43.68-19.595,43.68-43.68    V238.307C512,214.222,492.405,194.626,468.32,194.626z M495.413,379.853c0,14.94-12.154,27.093-27.093,27.093H43.68    c-14.939,0-27.093-12.153-27.093-27.093V238.307c0-14.94,12.154-27.093,27.093-27.093H468.32    c14.939,0,27.093,12.153,27.093,27.093V379.853z"/>
	</g>
</g>
<g>
	<g>
		<path d="M362.16,371.559H149.84c-4.58,0-8.294,3.712-8.294,8.294c0,4.581,3.713,8.294,8.294,8.294h212.32    c4.58,0,8.294-3.712,8.294-8.294C370.454,375.272,366.74,371.559,362.16,371.559z"/>
	</g>
</g>
<g>
	<g>
		<path d="M114.454,371.559H96.76c-4.58,0-8.294,3.712-8.294,8.294c0,4.581,3.713,8.294,8.294,8.294h17.693    c4.58,0,8.294-3.712,8.294-8.294C122.747,375.272,119.034,371.559,114.454,371.559z"/>
	</g>
</g>
<g>
	<g>
		<path d="M61.374,371.559H43.68c-4.58,0-8.294,3.712-8.294,8.294c0,4.581,3.713,8.294,8.294,8.294h17.693    c4.58,0,8.294-3.712,8.294-8.294C69.667,375.272,65.954,371.559,61.374,371.559z"/>
	</g>
</g>
<g>
	<g>
		<path d="M468.32,371.559h-17.693c-4.58,0-8.294,3.712-8.294,8.294c0,4.581,3.713,8.294,8.294,8.294h17.693    c4.58,0,8.294-3.712,8.294-8.294C476.613,375.272,472.9,371.559,468.32,371.559z"/>
	</g>
</g>
<g>
	<g>
		<path d="M415.24,371.559h-17.693c-4.58,0-8.294,3.712-8.294,8.294c0,4.581,3.713,8.294,8.294,8.294h17.693    c4.58,0,8.294-3.712,8.294-8.294C423.533,375.272,419.82,371.559,415.24,371.559z"/>
	</g>
</g>
<g>
	<g>
		<path d="M468.32,336.173h-35.387c-4.58,0-8.294,3.712-8.294,8.294c0,4.581,3.713,8.294,8.294,8.294h35.387    c4.58,0,8.294-3.712,8.294-8.294C476.613,339.885,472.9,336.173,468.32,336.173z"/>
	</g>
</g>
<g>
	<g>
		<path d="M397.546,336.173h-17.693c-4.58,0-8.294,3.712-8.294,8.294c0,4.581,3.713,8.294,8.294,8.294h17.693    c4.58,0,8.294-3.712,8.294-8.294C405.84,339.885,402.127,336.173,397.546,336.173z"/>
	</g>
</g>
<g>
	<g>
		<path d="M344.466,336.173h-17.693c-4.58,0-8.294,3.712-8.294,8.294c0,4.581,3.713,8.294,8.294,8.294h17.693    c4.58,0,8.294-3.712,8.294-8.294C352.76,339.885,349.047,336.173,344.466,336.173z"/>
	</g>
</g>
<g>
	<g>
		<path d="M291.387,336.173h-17.693c-4.58,0-8.294,3.712-8.294,8.294c0,4.581,3.713,8.294,8.294,8.294h17.693    c4.58,0,8.294-3.712,8.294-8.294C299.68,339.885,295.967,336.173,291.387,336.173z"/>
	</g>
</g>
<g>
	<g>
		<path d="M238.307,336.173h-17.693c-4.58,0-8.294,3.712-8.294,8.294c0,4.581,3.713,8.294,8.294,8.294h17.693    c4.58,0,8.294-3.712,8.294-8.294C246.6,339.885,242.887,336.173,238.307,336.173z"/>
	</g>
</g>
<g>
	<g>
		<path d="M185.227,336.173h-17.693c-4.58,0-8.294,3.712-8.294,8.294c0,4.581,3.713,8.294,8.294,8.294h17.693    c4.58,0,8.294-3.712,8.294-8.294C193.521,339.885,189.807,336.173,185.227,336.173z"/>
	</g>
</g>
<g>
	<g>
		<path d="M132.147,336.173h-17.693c-4.58,0-8.294,3.712-8.294,8.294c0,4.581,3.713,8.294,8.294,8.294h17.693    c4.58,0,8.294-3.712,8.294-8.294C140.441,339.885,136.727,336.173,132.147,336.173z"/>
	</g>
</g>
<g>
	<g>
		<path d="M79.067,336.173H43.68c-4.58,0-8.294,3.712-8.294,8.294c0,4.581,3.713,8.294,8.294,8.294h35.387    c4.58,0,8.294-3.712,8.294-8.294C87.361,339.885,83.647,336.173,79.067,336.173z"/>
	</g>
</g>
<g>
	<g>
		<path d="M468.32,265.4h-35.387c-4.58,0-8.294,3.712-8.294,8.294s3.713,8.294,8.294,8.294h35.387c4.58,0,8.294-3.712,8.294-8.294    S472.9,265.4,468.32,265.4z"/>
	</g>
</g>
<g>
	<g>
		<path d="M397.546,265.4h-17.693c-4.58,0-8.294,3.712-8.294,8.294s3.713,8.294,8.294,8.294h17.693c4.58,0,8.294-3.712,8.294-8.294    S402.127,265.4,397.546,265.4z"/>
	</g>
</g>
<g>
	<g>
		<path d="M344.466,265.4h-17.693c-4.58,0-8.294,3.712-8.294,8.294s3.713,8.294,8.294,8.294h17.693c4.58,0,8.294-3.712,8.294-8.294    S349.047,265.4,344.466,265.4z"/>
	</g>
</g>
<g>
	<g>
		<path d="M291.387,265.4h-17.693c-4.58,0-8.294,3.712-8.294,8.294s3.713,8.294,8.294,8.294h17.693c4.58,0,8.294-3.712,8.294-8.294    S295.967,265.4,291.387,265.4z"/>
	</g>
</g>
<g>
	<g>
		<path d="M238.307,265.4h-17.693c-4.58,0-8.294,3.712-8.294,8.294s3.713,8.294,8.294,8.294h17.693c4.58,0,8.294-3.712,8.294-8.294    S242.887,265.4,238.307,265.4z"/>
	</g>
</g>
<g>
	<g>
		<path d="M185.227,265.4h-17.693c-4.58,0-8.294,3.712-8.294,8.294s3.713,8.294,8.294,8.294h17.693c4.58,0,8.294-3.712,8.294-8.294    S189.807,265.4,185.227,265.4z"/>
	</g>
</g>
<g>
	<g>
		<path d="M132.147,265.4h-17.693c-4.58,0-8.294,3.712-8.294,8.294s3.713,8.294,8.294,8.294h17.693c4.58,0,8.294-3.712,8.294-8.294    S136.727,265.4,132.147,265.4z"/>
	</g>
</g>
<g>
	<g>
		<path d="M79.067,265.4H43.68c-4.58,0-8.294,3.712-8.294,8.294s3.713,8.294,8.294,8.294h35.387c4.58,0,8.294-3.712,8.294-8.294    S83.647,265.4,79.067,265.4z"/>
	</g>
</g>
<g>
	<g>
		<path d="M468.32,300.786h-17.693c-4.58,0-8.294,3.712-8.294,8.294s3.713,8.294,8.294,8.294h17.693c4.58,0,8.294-3.712,8.294-8.294    S472.9,300.786,468.32,300.786z"/>
	</g>
</g>
<g>
	<g>
		<path d="M415.24,300.786h-17.693c-4.58,0-8.294,3.712-8.294,8.294s3.713,8.294,8.294,8.294h17.693c4.58,0,8.294-3.712,8.294-8.294    S419.82,300.786,415.24,300.786z"/>
	</g>
</g>
<g>
	<g>
		<path d="M362.16,300.786h-17.693c-4.58,0-8.294,3.712-8.294,8.294s3.713,8.294,8.294,8.294h17.693c4.58,0,8.294-3.712,8.294-8.294    S366.74,300.786,362.16,300.786z"/>
	</g>
</g>
<g>
	<g>
		<path d="M309.08,300.786h-17.693c-4.58,0-8.294,3.712-8.294,8.294s3.713,8.294,8.294,8.294h17.693c4.58,0,8.294-3.712,8.294-8.294    S313.66,300.786,309.08,300.786z"/>
	</g>
</g>
<g>
	<g>
		<path d="M256,300.786h-17.693c-4.58,0-8.294,3.712-8.294,8.294s3.713,8.294,8.294,8.294H256c4.58,0,8.294-3.712,8.294-8.294    S260.58,300.786,256,300.786z"/>
	</g>
</g>
<g>
	<g>
		<path d="M202.92,300.786h-17.693c-4.58,0-8.294,3.712-8.294,8.294s3.713,8.294,8.294,8.294h17.693c4.58,0,8.294-3.712,8.294-8.294    S207.5,300.786,202.92,300.786z"/>
	</g>
</g>
<g>
	<g>
		<path d="M149.84,300.786h-17.693c-4.58,0-8.294,3.712-8.294,8.294s3.713,8.294,8.294,8.294h17.693c4.58,0,8.294-3.712,8.294-8.294    S154.421,300.786,149.84,300.786z"/>
	</g>
</g>
<g>
	<g>
		<path d="M96.76,300.786H43.68c-4.58,0-8.294,3.712-8.294,8.294s3.713,8.294,8.294,8.294h53.08c4.58,0,8.294-3.712,8.294-8.294    S101.341,300.786,96.76,300.786z"/>
	</g>
</g>
<g>
	<g>
		<path d="M468.32,230.013h-17.693c-4.58,0-8.294,3.712-8.294,8.294s3.713,8.294,8.294,8.294h17.693c4.58,0,8.294-3.712,8.294-8.294    S472.9,230.013,468.32,230.013z"/>
	</g>
</g>
<g>
	<g>
		<path d="M415.24,230.013h-17.693c-4.58,0-8.294,3.712-8.294,8.294s3.713,8.294,8.294,8.294h17.693c4.58,0,8.294-3.712,8.294-8.294    S419.82,230.013,415.24,230.013z"/>
	</g>
</g>
<g>
	<g>
		<path d="M362.16,230.013h-17.693c-4.58,0-8.294,3.712-8.294,8.294s3.713,8.294,8.294,8.294h17.693c4.58,0,8.294-3.712,8.294-8.294    S366.74,230.013,362.16,230.013z"/>
	</g>
</g>
<g>
	<g>
		<path d="M309.08,230.013h-17.693c-4.58,0-8.294,3.712-8.294,8.294s3.713,8.294,8.294,8.294h17.693c4.58,0,8.294-3.712,8.294-8.294    S313.66,230.013,309.08,230.013z"/>
	</g>
</g>
<g>
	<g>
		<path d="M256,230.013h-17.693c-4.58,0-8.294,3.712-8.294,8.294s3.713,8.294,8.294,8.294H256c4.58,0,8.294-3.712,8.294-8.294    S260.58,230.013,256,230.013z"/>
	</g>
</g>
<g>
	<g>
		<path d="M202.92,230.013h-17.693c-4.58,0-8.294,3.712-8.294,8.294s3.713,8.294,8.294,8.294h17.693c4.58,0,8.294-3.712,8.294-8.294    S207.5,230.013,202.92,230.013z"/>
	</g>
</g>
<g>
	<g>
		<path d="M149.84,230.013h-17.693c-4.58,0-8.294,3.712-8.294,8.294s3.713,8.294,8.294,8.294h17.693c4.58,0,8.294-3.712,8.294-8.294    S154.421,230.013,149.84,230.013z"/>
	</g>
</g>
<g>
	<g>
		<path d="M96.76,230.013H43.68c-4.58,0-8.294,3.712-8.294,8.294S39.1,246.6,43.68,246.6h53.08c4.58,0,8.294-3.712,8.294-8.294    S101.341,230.013,96.76,230.013z"/>
	</g>
</g>
<g>
</g>
<g>
</g>
<g>
</g>
<g>
</g>
<g>
</g>
<g>
</g>
<g>
</g>
<g>
</g>
<g>
</g>
<g>
</g>
<g>
</g>
<g>
</g>
<g>
</g>
<g>
</g>
<g>
</g>
</svg>
