<?xml version="1.0" encoding="iso-8859-1"?>
<!-- Generator: Adobe Illustrator 19.0.0, SVG Export Plug-In . SVG Version: 6.00 Build 0)  -->
<svg xmlns="http://www.w3.org/2000/svg" xmlns:xlink="http://www.w3.org/1999/xlink" version="1.1" id="Layer_1" x="0px" y="0px" viewBox="0 0 512 512" style="enable-background:new 0 0 512 512;" xml:space="preserve">
<g>
	<g>
		<path d="M503.706,371.559H485.46v-9.4c0-13.68-10.628-24.918-24.06-25.907l26.282-98.557C501.236,236.83,512,225.534,512,211.767    c0-14.329-11.658-25.987-25.987-25.987c-0.485,0-0.966,0.016-1.445,0.042l-34.795-86.986c5.592-4.771,9.147-11.86,9.147-19.769    c0-14.329-11.658-25.987-25.987-25.987c-11.43,0-21.152,7.42-24.622,17.693h-16.714l-1.578-12.623    c-1.621-12.977-12.707-22.764-25.786-22.764h-21.841c-13.079,0-24.165,9.787-25.786,22.764l-2.684,21.47H34.834    C15.627,79.62,0,95.246,0,114.454V309.08c0,19.207,15.627,34.834,34.834,34.834h89.019v27.646H8.294    c-4.58,0-8.294,3.712-8.294,8.294v35.387c0,4.581,3.713,8.294,8.294,8.294H26.54v44.786c0,4.581,3.713,8.294,8.294,8.294    c4.58,0,8.294-3.712,8.294-8.294v-44.786h18.799v44.786c0,4.581,3.713,8.294,8.294,8.294c4.58,0,8.294-3.712,8.294-8.294v-44.786    h363.819v44.786c0,4.581,3.713,8.294,8.294,8.294c4.58,0,8.294-3.712,8.294-8.294v-44.786h18.799v44.786    c0,4.581,3.713,8.294,8.294,8.294c4.58,0,8.294-3.712,8.294-8.294v-44.786h9.4c4.58,0,8.294-3.712,8.294-8.294v-35.387    C512,375.272,508.287,371.559,503.706,371.559z M468.873,362.16v9.4H361.607v-9.4c0-5.183,4.217-9.4,9.4-9.4h79.592    c0.011,0,0.022,0.002,0.033,0.002c0.009,0,0.018-0.002,0.026-0.002h8.816C464.656,352.76,468.873,356.977,468.873,362.16z     M486.013,202.367c5.183,0,9.4,4.216,9.4,9.4s-4.217,9.4-9.4,9.4s-9.4-4.217-9.4-9.4S480.83,202.367,486.013,202.367z     M432.933,69.667c5.183,0,9.4,4.217,9.4,9.4s-4.216,9.4-9.4,9.4s-9.4-4.216-9.4-9.4S427.75,69.667,432.933,69.667z     M408.311,87.361c3.47,10.273,13.193,17.693,24.622,17.693c0.485,0,0.966-0.016,1.445-0.042l34.795,86.986    c-5.592,4.771-9.147,11.86-9.147,19.769c0,9.026,4.627,16.988,11.631,21.648l-27.403,102.758h-73.248    c-14.329,0-25.987,11.658-25.987,25.987v9.4H237.754v-27.646h80.173c19.207,0,34.834-15.626,34.834-34.834V158.134h62.479    c4.58,0,8.294-3.712,8.294-8.294v-8.847c0-16.66-11.759-30.618-27.411-34.03l-2.451-19.603H408.311z M333.065,60.208    c0.587-4.694,4.597-8.234,9.328-8.234h21.841c4.731,0,8.74,3.54,9.328,8.234l5.743,45.952h-51.983L333.065,60.208z     M317.927,122.747H388.7c10.061,0,18.246,8.185,18.246,18.246v0.553H299.68v-0.553    C299.68,130.933,307.866,122.747,317.927,122.747z M291.387,158.134h9.4v98.419H51.974V131.594h232.418    c-0.84,2.992-1.299,6.143-1.299,9.4v8.847C283.093,154.422,286.806,158.134,291.387,158.134z M16.587,114.454    c0-10.061,8.185-18.246,18.246-18.246h277.015l-1.345,10.756c-5.956,1.298-11.347,4.121-15.742,8.043H43.68    c-4.58,0-8.294,3.712-8.294,8.294v141.546c0,4.581,3.713,8.294,8.294,8.294h265.4c4.58,0,8.294-3.712,8.294-8.294V158.134h18.799    V291.94H16.587V114.454z M34.834,327.326c-10.061,0-18.246-8.185-18.246-18.246v-0.553h319.585v0.553    c0,10.061-8.185,18.246-18.246,18.246H34.834z M221.166,343.914v27.646h-80.726v-27.646H221.166z M495.413,406.946H16.587v-18.799    h478.825V406.946z"/>
	</g>
</g>
<g>
</g>
<g>
</g>
<g>
</g>
<g>
</g>
<g>
</g>
<g>
</g>
<g>
</g>
<g>
</g>
<g>
</g>
<g>
</g>
<g>
</g>
<g>
</g>
<g>
</g>
<g>
</g>
<g>
</g>
</svg>
