<?xml version="1.0" encoding="iso-8859-1"?>
<!-- Generator: Adobe Illustrator 19.0.0, SVG Export Plug-In . SVG Version: 6.00 Build 0)  -->
<svg xmlns="http://www.w3.org/2000/svg" xmlns:xlink="http://www.w3.org/1999/xlink" version="1.1" id="Layer_1" x="0px" y="0px" viewBox="0 0 512.002 512.002" style="enable-background:new 0 0 512.002 512.002;" xml:space="preserve">
<g>
	<g>
		<path d="M431.772,500.59l-18.363-45.294c5.179-5.966,7.106-14.463,4.358-22.319L299.643,95.244    c-0.472-13.743-7.314-25.894-17.67-33.578c0.003-0.097,0.014-0.194,0.014-0.292V25.987C281.987,11.658,270.329,0,256,0    c-14.329,0-25.987,11.658-25.987,25.987v35.386c0,0.098,0.011,0.195,0.014,0.292c-10.355,7.683-17.197,19.835-17.67,33.578    L94.235,432.977c-2.748,7.856-0.82,16.353,4.357,22.319L80.23,500.589c-1.722,4.244,0.325,9.081,4.57,10.802    c1.021,0.415,2.075,0.61,3.112,0.61c3.278,0,6.382-1.956,7.689-5.181l17.786-43.873c0.725,0.072,1.453,0.114,2.181,0.114    c2.876,0,5.756-0.558,8.508-1.676c5.711-2.318,10.13-6.74,12.446-12.453l46.163-113.866h47.329v9.4    c0,14.329,11.658,25.987,25.987,25.987c14.329,0,25.987-11.658,25.987-25.987v-9.4h47.328l46.163,113.868    c2.316,5.712,6.736,10.134,12.446,12.452c2.753,1.119,5.632,1.676,8.508,1.676c0.728,0,1.455-0.042,2.181-0.114l17.786,43.873    c1.307,3.225,4.411,5.181,7.689,5.181c1.037,0,2.092-0.197,3.112-0.61C431.447,509.671,433.494,504.834,431.772,500.59z     M246.602,25.988c0-5.183,4.217-9.4,9.4-9.4c5.183,0,9.4,4.216,9.4,9.4V54.11c-3.03-0.668-6.173-1.029-9.4-1.029    c-3.227,0-6.37,0.363-9.4,1.029V25.988z M256.001,69.668c14.94,0,27.093,12.153,27.093,27.093    c0,14.94-12.153,27.093-27.093,27.093c-14.94,0-27.093-12.153-27.093-27.093C228.908,81.821,241.061,69.668,256.001,69.668z     M121.152,442.701c-0.617,1.522-1.794,2.698-3.314,3.316c-1.518,0.616-3.184,0.594-4.687-0.069    c-2.859-1.256-4.289-4.548-3.259-7.495l110.619-316.276c5.74,7.992,14.104,13.971,23.825,16.669L121.152,442.701z     M265.401,344.466c0,5.183-4.217,9.4-9.4,9.4c-5.183,0-9.4-4.216-9.4-9.4V309.08c0-5.183,4.217-9.4,9.4-9.4    c5.183,0,9.4,4.217,9.4,9.4V344.466z M281.988,318.479v-9.4c0-14.329-11.658-25.987-25.987-25.987    c-14.329,0-25.987,11.658-25.987,25.987v9.4H189.41l66.591-164.258l66.591,164.258H281.988z M398.85,445.95    c-1.502,0.66-3.168,0.682-4.685,0.067c-1.521-0.618-2.697-1.795-3.314-3.315L267.665,138.846    c9.721-2.698,18.085-8.677,23.825-16.669L402.11,438.454C403.14,441.401,401.709,444.694,398.85,445.95z"/>
	</g>
</g>
<g>
</g>
<g>
</g>
<g>
</g>
<g>
</g>
<g>
</g>
<g>
</g>
<g>
</g>
<g>
</g>
<g>
</g>
<g>
</g>
<g>
</g>
<g>
</g>
<g>
</g>
<g>
</g>
<g>
</g>
</svg>
