<?xml version="1.0" encoding="iso-8859-1"?>
<!-- Generator: Adobe Illustrator 19.0.0, SVG Export Plug-In . SVG Version: 6.00 Build 0)  -->
<svg xmlns="http://www.w3.org/2000/svg" xmlns:xlink="http://www.w3.org/1999/xlink" version="1.1" id="Layer_1" x="0px" y="0px" viewBox="0 0 512 512" style="enable-background:new 0 0 512 512;" xml:space="preserve">
<g>
	<g>
		<path d="M300.165,150.709l5.754-97.814c0.816-13.879-3.987-27.094-13.525-37.209C282.855,5.571,269.946,0,255.957,0    c-13.903,0-26.812,5.571-36.35,15.686c-9.538,10.115-14.341,23.331-13.525,37.209l5.754,97.814    c-14.712,2.12-26.056,14.805-26.056,30.094c0,15.456,11.594,28.247,26.54,30.156v230.82c0,12.979,7.14,24.314,17.693,30.306    v13.927C230.013,500.342,241.671,512,256,512c14.329,0,25.987-11.658,25.987-25.987v-13.927    c10.553-5.992,17.693-17.327,17.693-30.306v-230.82c14.946-1.909,26.54-14.7,26.54-30.156    C326.22,165.514,314.877,152.829,300.165,150.709z M231.676,27.066c6.371-6.757,14.995-10.479,24.367-10.479    c9.287,0,17.91,3.721,24.282,10.479c6.372,6.757,9.58,15.584,9.035,24.856l-5.793,98.471h-55.132l-5.792-98.472    C222.096,42.65,225.304,33.823,231.676,27.066z M265.4,486.013c0,5.183-4.216,9.4-9.4,9.4s-9.4-4.217-9.4-9.4v-9.414    c0.185,0.003,0.367,0.014,0.553,0.014h17.693c0.186,0,0.368-0.011,0.553-0.014V486.013z M283.093,441.78    c0,10.062-8.185,18.246-18.246,18.246h-17.693c-10.061,0-18.246-8.184-18.246-18.246V379.3h54.186V441.78z M283.093,362.713    h-54.186V211.214h54.186V362.713z M295.81,194.626h-79.62c-7.622,0-13.823-6.2-13.823-13.823s6.2-13.823,13.823-13.823h79.62    c7.622,0,13.823,6.2,13.823,13.823S303.432,194.626,295.81,194.626z"/>
	</g>
</g>
<g>
</g>
<g>
</g>
<g>
</g>
<g>
</g>
<g>
</g>
<g>
</g>
<g>
</g>
<g>
</g>
<g>
</g>
<g>
</g>
<g>
</g>
<g>
</g>
<g>
</g>
<g>
</g>
<g>
</g>
</svg>
