<?xml version="1.0" encoding="iso-8859-1"?>
<!-- Generator: Adobe Illustrator 19.0.0, SVG Export Plug-In . SVG Version: 6.00 Build 0)  -->
<svg xmlns="http://www.w3.org/2000/svg" xmlns:xlink="http://www.w3.org/1999/xlink" version="1.1" id="Layer_1" x="0px" y="0px" viewBox="0 0 512 512" style="enable-background:new 0 0 512 512;" xml:space="preserve">
<g>
	<g>
		<path d="M512,167.533c0-87.5-71.187-158.687-158.687-158.687c-36.644,0-70.422,12.49-97.313,33.429    c-26.892-20.939-60.669-33.429-97.313-33.429C71.187,8.847,0,80.033,0,167.533c0,66.806,41.499,124.096,100.069,147.462    c-1.802,9.553-2.756,19.403-2.756,29.471c0,87.5,71.187,158.687,158.687,158.687s158.687-71.187,158.687-158.687    c0-10.069-0.953-19.918-2.756-29.471C470.501,291.63,512,234.339,512,167.533z M256,64.086    c27.553,25.933,44.786,62.713,44.786,103.447c0,8.213-0.709,16.262-2.054,24.097c-13.602-3.809-27.932-5.851-42.733-5.851    c-14.8,0-29.132,2.044-42.733,5.851c-1.345-7.835-2.054-15.884-2.054-24.097C211.214,126.799,228.447,90.019,256,64.086z     M218.451,212.32c-0.498-1.495-0.969-3.003-1.418-4.52c12.386-3.538,25.46-5.433,38.966-5.433s26.58,1.895,38.966,5.433    c-0.449,1.516-0.92,3.024-1.418,4.52H218.451z M286.836,228.907c-1.633,3.395-3.4,6.712-5.289,9.953h-51.094    c-1.888-3.24-3.656-6.558-5.288-9.953H286.836z M243.208,281.692c-23.638,17.546-52.888,27.941-84.521,27.941    c-13.507,0-26.58-1.895-38.966-5.433c12.173-41.127,42.489-74.534,81.642-90.903C209.305,239.615,223.907,263.07,243.208,281.692z     M241.75,255.447h28.498c-4.362,5.525-9.13,10.714-14.25,15.534C250.88,266.162,246.114,260.972,241.75,255.447z M310.637,213.297    c39.153,16.37,69.471,49.777,81.642,90.903c-12.386,3.538-25.46,5.433-38.966,5.433c-31.633,0-60.883-10.395-84.521-27.941    C288.093,263.07,302.695,239.615,310.637,213.297z M16.587,167.533c0-78.354,63.746-142.099,142.099-142.099    c31.633,0,60.883,10.395,84.521,27.941c-29.933,28.88-48.581,69.38-48.581,114.158c0,10.069,0.953,19.918,2.756,29.472    c-44.626,17.803-79.332,55.303-93.331,101.698C52.738,277.25,16.587,226.536,16.587,167.533z M256,486.566    c-78.354,0-142.099-63.746-142.099-142.099c0-8.213,0.709-16.262,2.054-24.097c13.602,3.808,27.932,5.851,42.733,5.851    c36.644,0,70.422-12.49,97.313-33.429c26.892,20.939,60.669,33.429,97.313,33.429c14.8,0,29.132-2.044,42.733-5.851    c1.345,7.835,2.054,15.884,2.054,24.097C398.099,422.82,334.354,486.566,256,486.566z M407.95,298.703    c-14-46.395-48.705-83.895-93.331-101.698c1.801-9.553,2.756-19.403,2.756-29.472c0-44.778-18.649-85.278-48.581-114.158    c23.637-17.546,52.886-27.941,84.52-27.941c78.354,0,142.099,63.746,142.099,142.099    C495.413,226.536,459.262,277.25,407.95,298.703z"/>
	</g>
</g>
<g>
</g>
<g>
</g>
<g>
</g>
<g>
</g>
<g>
</g>
<g>
</g>
<g>
</g>
<g>
</g>
<g>
</g>
<g>
</g>
<g>
</g>
<g>
</g>
<g>
</g>
<g>
</g>
<g>
</g>
</svg>
