<?xml version="1.0" encoding="iso-8859-1"?>
<!-- Generator: Adobe Illustrator 19.0.0, SVG Export Plug-In . SVG Version: 6.00 Build 0)  -->
<svg xmlns="http://www.w3.org/2000/svg" xmlns:xlink="http://www.w3.org/1999/xlink" version="1.1" id="Layer_1" x="0px" y="0px" viewBox="0 0 512 512" style="enable-background:new 0 0 512 512;" xml:space="preserve">
<g>
	<g>
		<path d="M379.853,44.233H8.294C3.713,44.233,0,47.946,0,52.527v61.927c0,3.253,1.903,6.207,4.866,7.552    c2.964,1.347,6.438,0.833,8.889-1.309l68.45-59.875h77.036v390.359h-18.246c-4.58,0-8.294,3.712-8.294,8.294    c0,4.581,3.713,8.294,8.294,8.294h106.16c4.58,0,8.294-3.712,8.294-8.294c0-4.581-3.713-8.294-8.294-8.294h-18.246V60.821h77.001    l68.485,59.876c1.542,1.348,3.49,2.05,5.461,2.05c1.16,0,2.329-0.243,3.427-0.742c2.963-1.345,4.865-4.298,4.865-7.552V52.527    C388.147,47.946,384.433,44.233,379.853,44.233z M16.587,96.181v-35.36h40.424L16.587,96.181z M212.32,451.179h-36.492V60.821    h36.492V451.179z M371.559,96.185l-40.45-35.365h40.45V96.185z"/>
	</g>
</g>
<g>
	<g>
		<path d="M503.706,389.253h-35.94V122.747h35.94c3.107,0,5.953-1.736,7.375-4.499c1.421-2.762,1.18-6.088-0.626-8.616    l-44.233-61.927c-1.557-2.18-4.071-3.473-6.749-3.473c-2.678,0-5.192,1.294-6.749,3.473l-44.233,61.927    c-1.806,2.528-2.047,5.853-0.626,8.616c1.422,2.762,4.267,4.499,7.375,4.499h35.94v266.505h-35.94    c-3.107,0-5.953,1.736-7.375,4.499c-1.421,2.762-1.18,6.088,0.626,8.615l44.233,61.927c1.557,2.18,4.071,3.473,6.749,3.473    c2.678,0,5.192-1.294,6.749-3.473l44.233-61.927c1.806-2.528,2.047-5.853,0.626-8.615    C509.659,390.989,506.814,389.253,503.706,389.253z M431.355,106.16l28.118-39.364l28.117,39.364H431.355z M459.473,445.204    l-28.117-39.364h56.235L459.473,445.204z"/>
	</g>
</g>
<g>
</g>
<g>
</g>
<g>
</g>
<g>
</g>
<g>
</g>
<g>
</g>
<g>
</g>
<g>
</g>
<g>
</g>
<g>
</g>
<g>
</g>
<g>
</g>
<g>
</g>
<g>
</g>
<g>
</g>
</svg>
