<?xml version="1.0" encoding="iso-8859-1"?>
<!-- Generator: Adobe Illustrator 19.0.0, SVG Export Plug-In . SVG Version: 6.00 Build 0)  -->
<svg xmlns="http://www.w3.org/2000/svg" xmlns:xlink="http://www.w3.org/1999/xlink" version="1.1" id="Layer_1" x="0px" y="0px" viewBox="0 0 512 512" style="enable-background:new 0 0 512 512;" xml:space="preserve">
<g>
	<g>
		<path d="M291.387,398.099h-12.139L157.509,102.45c-1.279-3.109-4.308-5.137-7.669-5.137c-3.361,0-6.389,2.028-7.669,5.137    L20.432,398.099H8.294c-4.58,0-8.294,3.712-8.294,8.294s3.713,8.294,8.294,8.294H43.68c4.58,0,8.294-3.712,8.294-8.294    s-3.713-8.294-8.294-8.294h-5.309l29.598-71.879h119.511l29.598,71.879h-5.31c-4.58,0-8.294,3.712-8.294,8.294    s3.713,8.294,8.294,8.294h79.62c4.58,0,8.294-3.712,8.294-8.294S295.967,398.099,291.387,398.099z M74.798,309.633l52.925-128.532    l52.925,128.532H74.798z M235.015,398.099l-98.322-238.78l13.147-31.929l111.469,270.709H235.015z"/>
	</g>
</g>
<g>
	<g>
		<path d="M503.706,398.099h-8.847c-5.183,0-9.4-4.217-9.4-9.4V282.54c0-38.72-31.501-70.22-70.22-70.22h-35.387    c-38.72,0-70.22,31.501-70.22,70.22c0,4.581,3.713,8.294,8.294,8.294h35.387c4.58,0,8.294-3.712,8.294-8.294    c0-23.377,15.033-43.308,35.94-50.634c20.907,7.326,35.94,27.257,35.94,50.634v11.899c-14.876,5.143-29.414,7.522-43.522,9.821    c-25.721,4.191-50.015,8.151-67.051,28.912c-12.907,15.729-16.102,35.697-8.337,52.113c4.18,8.84,18.049,29.402,56.431,29.402    H388.7c16.158,0,31.32-4.19,48.059-13.382c4.442,7.974,12.957,13.382,22.714,13.382h44.233c4.58,0,8.294-3.712,8.294-8.294    S508.287,398.099,503.706,398.099z M345.506,274.246h-18.645c3.42-21.947,20.199-39.529,41.73-44.149    C356.084,241.234,347.572,256.767,345.506,274.246z M358.815,332.879c-13.72,15.208-17.416,37.847-9.196,56.33    c1.07,2.407,2.331,4.649,3.728,6.752c-11.351-3.016-19.692-9.132-23.776-17.767c-5.07-10.719-2.766-23.616,6.165-34.499    c7.941-9.676,18.206-14.632,30.533-17.93C363.596,327.983,361.097,330.348,358.815,332.879z M433.486,384.067    c-16.161,9.674-30.126,14.032-44.786,14.032c-14.768,0-21.328-9.792-23.925-15.631c-4.66-10.481-4.502-26.444,6.356-38.481    c13.879-15.384,39.708-24.188,62.354-31.055V384.067z M459.473,398.099c-5.183,0-9.4-4.217-9.4-9.4v-86.776    c0.001-0.04,0-0.08,0-0.119V282.54c0-20.829-9.119-39.572-23.571-52.443c24.183,5.19,42.37,26.732,42.37,52.443V388.7    c0,3.313,0.623,6.484,1.758,9.4H459.473z"/>
	</g>
</g>
<g>
</g>
<g>
</g>
<g>
</g>
<g>
</g>
<g>
</g>
<g>
</g>
<g>
</g>
<g>
</g>
<g>
</g>
<g>
</g>
<g>
</g>
<g>
</g>
<g>
</g>
<g>
</g>
<g>
</g>
</svg>
