<?xml version="1.0" encoding="iso-8859-1"?>
<!-- Generator: Adobe Illustrator 19.0.0, SVG Export Plug-In . SVG Version: 6.00 Build 0)  -->
<svg xmlns="http://www.w3.org/2000/svg" xmlns:xlink="http://www.w3.org/1999/xlink" version="1.1" id="Layer_1" x="0px" y="0px" viewBox="0 0 512 512" style="enable-background:new 0 0 512 512;" xml:space="preserve">
<g>
	<g>
		<path d="M503.706,51.974c4.58,0,8.294-3.713,8.294-8.294V8.294C512,3.713,508.287,0,503.706,0H468.32    c-4.58,0-8.294,3.713-8.294,8.294v9.4H281.987v-9.4c0-4.58-3.713-8.294-8.294-8.294h-35.387c-4.58,0-8.294,3.713-8.294,8.294v9.4    H51.974v-9.4C51.974,3.713,48.261,0,43.68,0H8.294C3.713,0,0,3.713,0,8.294V43.68c0,4.58,3.713,8.294,8.294,8.294h9.4v178.039    h-9.4c-4.58,0-8.294,3.713-8.294,8.294v35.387c0,4.58,3.713,8.294,8.294,8.294h9.4v178.039h-9.4c-4.58,0-8.294,3.713-8.294,8.294    v35.387C0,508.287,3.713,512,8.294,512H43.68c4.58,0,8.294-3.713,8.294-8.294v-9.4h178.039v9.4c0,4.58,3.713,8.294,8.294,8.294    h35.387c4.58,0,8.294-3.713,8.294-8.294v-9.4h178.039v9.4c0,4.58,3.713,8.294,8.294,8.294h35.387c4.58,0,8.294-3.713,8.294-8.294    V468.32c0-4.58-3.713-8.294-8.294-8.294h-9.4V281.987h9.4c4.58,0,8.294-3.713,8.294-8.294v-35.387c0-4.58-3.713-8.294-8.294-8.294    h-9.4V51.974H503.706z M246.6,16.587H265.4v18.799H246.6V16.587z M16.587,35.387V16.587h18.799v18.799H16.587z M16.587,265.4    V246.6h18.799V265.4H16.587z M35.387,495.413H16.587v-18.799h18.799V495.413z M265.4,495.413H246.6v-18.799H265.4V495.413z     M460.026,468.32v9.4H281.987v-9.4c0-4.58-3.713-8.294-8.294-8.294h-35.387c-4.58,0-8.294,3.713-8.294,8.294v9.4H51.974v-9.4    c0-4.58-3.713-8.294-8.294-8.294h-9.4V281.987h9.4c4.58,0,8.294-3.713,8.294-8.294v-35.387c0-4.58-3.713-8.294-8.294-8.294h-9.4    V51.974h9.4c4.58,0,8.294-3.713,8.294-8.294v-9.4h178.039v9.4c0,4.58,3.713,8.294,8.294,8.294h35.387    c4.58,0,8.294-3.713,8.294-8.294v-9.4h178.039v9.4c0,4.58,3.713,8.294,8.294,8.294h9.4v178.039h-9.4    c-4.58,0-8.294,3.713-8.294,8.294v35.387c0,4.58,3.713,8.294,8.294,8.294h9.4v178.039h-9.4    C463.739,460.026,460.026,463.739,460.026,468.32z M495.413,476.613v18.799h-18.799v-18.799H495.413z M495.413,246.6V265.4    h-18.799V246.6H495.413z M476.613,35.387V16.587h18.799v18.799H476.613z"/>
	</g>
</g>
<g>
	<g>
		<path d="M273.693,230.013h-35.387c-4.58,0-8.294,3.713-8.294,8.294v35.387c0,4.58,3.713,8.294,8.294,8.294h35.387    c4.58,0,8.294-3.713,8.294-8.294v-35.387C281.987,233.726,278.274,230.013,273.693,230.013z M265.4,265.4H246.6V246.6H265.4V265.4    z"/>
	</g>
</g>
<g>
</g>
<g>
</g>
<g>
</g>
<g>
</g>
<g>
</g>
<g>
</g>
<g>
</g>
<g>
</g>
<g>
</g>
<g>
</g>
<g>
</g>
<g>
</g>
<g>
</g>
<g>
</g>
<g>
</g>
</svg>
