<?xml version="1.0" encoding="iso-8859-1"?>
<!-- Generator: Adobe Illustrator 19.0.0, SVG Export Plug-In . SVG Version: 6.00 Build 0)  -->
<svg xmlns="http://www.w3.org/2000/svg" xmlns:xlink="http://www.w3.org/1999/xlink" version="1.1" id="Layer_1" x="0px" y="0px" viewBox="0 0 512 512" style="enable-background:new 0 0 512 512;" xml:space="preserve">
<g>
	<g>
		<path d="M348.89,274.246H163.11c-65.548,0-118.877,53.328-118.877,118.877S97.562,512,163.11,512h185.78    c65.548,0,118.877-53.328,118.877-118.877S414.438,274.246,348.89,274.246z M348.89,495.413H163.11    c-56.403,0-102.289-45.886-102.289-102.289s45.886-102.289,102.289-102.289h185.78c56.403,0,102.289,45.886,102.289,102.289    S405.293,495.413,348.89,495.413z"/>
	</g>
</g>
<g>
	<g>
		<path d="M163.11,309.633c-46.037,0-83.49,37.453-83.49,83.49s37.453,83.49,83.49,83.49s83.49-37.453,83.49-83.49    S209.147,309.633,163.11,309.633z M163.11,460.026c-36.889,0-66.903-30.012-66.903-66.903s30.013-66.903,66.903-66.903    c36.889,0,66.903,30.012,66.903,66.903S200,460.026,163.11,460.026z"/>
	</g>
</g>
<g>
	<g>
		<path d="M348.89,0H163.11C97.562,0,44.233,53.328,44.233,118.877S97.562,237.754,163.11,237.754h185.78    c65.548,0,118.877-53.328,118.877-118.877S414.438,0,348.89,0z M348.89,221.166H163.11c-56.403,0-102.289-45.886-102.289-102.289    S106.707,16.587,163.11,16.587h185.78c56.403,0,102.289,45.886,102.289,102.289S405.293,221.166,348.89,221.166z"/>
	</g>
</g>
<g>
	<g>
		<path d="M348.89,35.387c-46.037,0-83.49,37.453-83.49,83.49s37.453,83.49,83.49,83.49s83.49-37.453,83.49-83.49    S394.927,35.387,348.89,35.387z M348.89,185.78c-36.889,0-66.903-30.012-66.903-66.903S312,51.974,348.89,51.974    s66.903,30.012,66.903,66.903S385.779,185.78,348.89,185.78z"/>
	</g>
</g>
<g>
</g>
<g>
</g>
<g>
</g>
<g>
</g>
<g>
</g>
<g>
</g>
<g>
</g>
<g>
</g>
<g>
</g>
<g>
</g>
<g>
</g>
<g>
</g>
<g>
</g>
<g>
</g>
<g>
</g>
</svg>
