<?xml version="1.0" encoding="iso-8859-1"?>
<!-- Generator: Adobe Illustrator 19.0.0, SVG Export Plug-In . SVG Version: 6.00 Build 0)  -->
<svg xmlns="http://www.w3.org/2000/svg" xmlns:xlink="http://www.w3.org/1999/xlink" version="1.1" id="Layer_1" x="0px" y="0px" viewBox="0 0 512 512" style="enable-background:new 0 0 512 512;" xml:space="preserve">
<g>
	<g>
		<path d="M477.166,35.387H34.834C15.627,35.387,0,51.013,0,70.22v300.786c0,19.207,15.627,34.834,34.834,34.834h142.099v54.186    h-35.94c-4.58,0-8.294,3.713-8.294,8.294c0,4.58,3.713,8.294,8.294,8.294h230.013c4.58,0,8.294-3.713,8.294-8.294    c0-4.58-3.713-8.294-8.294-8.294h-35.94V405.84h142.099c19.207,0,34.834-15.627,34.834-34.834V70.22    C512,51.013,496.373,35.387,477.166,35.387z M318.479,460.026H193.521V405.84h124.959V460.026z M495.413,371.006    c0,10.061-8.185,18.246-18.246,18.246H34.834c-10.061,0-18.246-8.185-18.246-18.246V352.76h478.825V371.006z M495.413,336.173    H16.587V70.22c0-10.061,8.185-18.246,18.246-18.246h442.333c10.061,0,18.246,8.185,18.246,18.246V336.173z"/>
	</g>
</g>
<g>
	<g>
		<path d="M468.32,70.773H43.68c-4.58,0-8.294,3.713-8.294,8.294V309.08c0,4.58,3.713,8.294,8.294,8.294H468.32    c4.58,0,8.294-3.713,8.294-8.294V79.067C476.613,74.487,472.9,70.773,468.32,70.773z M460.026,300.786H51.974V158.134h408.052    V300.786z M460.026,141.546H51.974V87.361h408.052V141.546z"/>
	</g>
</g>
<g>
	<g>
		<path d="M167.533,106.16H79.067c-4.58,0-8.294,3.713-8.294,8.294c0,4.58,3.713,8.294,8.294,8.294h88.466    c4.58,0,8.294-3.713,8.294-8.294C175.827,109.873,172.114,106.16,167.533,106.16z"/>
	</g>
</g>
<g>
	<g>
		<path d="M220.613,106.16H202.92c-4.58,0-8.294,3.713-8.294,8.294c0,4.58,3.713,8.294,8.294,8.294h17.693    c4.58,0,8.294-3.713,8.294-8.294C228.907,109.873,225.194,106.16,220.613,106.16z"/>
	</g>
</g>
<g>
	<g>
		<path d="M273.693,106.16H256c-4.58,0-8.294,3.713-8.294,8.294c0,4.58,3.713,8.294,8.294,8.294h17.693    c4.58,0,8.294-3.713,8.294-8.294C281.987,109.873,278.274,106.16,273.693,106.16z"/>
	</g>
</g>
<g>
	<g>
		<path d="M326.773,106.16H309.08c-4.58,0-8.294,3.713-8.294,8.294c0,4.58,3.713,8.294,8.294,8.294h17.693    c4.58,0,8.294-3.713,8.294-8.294C335.067,109.873,331.354,106.16,326.773,106.16z"/>
	</g>
</g>
<g>
	<g>
		<path d="M379.853,106.16H362.16c-4.58,0-8.294,3.713-8.294,8.294c0,4.58,3.713,8.294,8.294,8.294h17.693    c4.58,0,8.294-3.713,8.294-8.294C388.147,109.873,384.433,106.16,379.853,106.16z"/>
	</g>
</g>
<g>
	<g>
		<path d="M432.933,106.16H415.24c-4.58,0-8.294,3.713-8.294,8.294c0,4.58,3.713,8.294,8.294,8.294h17.693    c4.58,0,8.294-3.713,8.294-8.294C441.227,109.873,437.513,106.16,432.933,106.16z"/>
	</g>
</g>
<g>
	<g>
		<path d="M220.613,176.933H79.067c-4.58,0-8.294,3.713-8.294,8.294v88.467c0,4.58,3.713,8.294,8.294,8.294h141.546    c4.58,0,8.294-3.713,8.294-8.294v-88.467C228.907,180.646,225.194,176.933,220.613,176.933z M212.32,265.4H87.361v-36.492H212.32    V265.4z M212.32,212.32H87.361V193.52H212.32V212.32z"/>
	</g>
</g>
<g>
	<g>
		<path d="M432.933,176.933H362.16c-4.58,0-8.294,3.713-8.294,8.294v88.467c0,4.58,3.713,8.294,8.294,8.294h70.773    c4.58,0,8.294-3.713,8.294-8.294v-88.467C441.227,180.646,437.513,176.933,432.933,176.933z M424.639,265.4h-54.186v-36.492    h54.186V265.4z M424.639,212.32h-54.186V193.52h54.186V212.32z"/>
	</g>
</g>
<g>
	<g>
		<path d="M326.773,176.933H256c-4.58,0-8.294,3.713-8.294,8.294v88.467c0,4.58,3.713,8.294,8.294,8.294h70.773    c4.58,0,8.294-3.713,8.294-8.294v-88.467C335.067,180.646,331.354,176.933,326.773,176.933z M318.479,265.4h-54.186v-36.492    h54.186V265.4z M318.479,212.32h-54.186V193.52h54.186V212.32z"/>
	</g>
</g>
<g>
</g>
<g>
</g>
<g>
</g>
<g>
</g>
<g>
</g>
<g>
</g>
<g>
</g>
<g>
</g>
<g>
</g>
<g>
</g>
<g>
</g>
<g>
</g>
<g>
</g>
<g>
</g>
<g>
</g>
</svg>
