<?xml version="1.0" encoding="iso-8859-1"?>
<!-- Generator: Adobe Illustrator 19.0.0, SVG Export Plug-In . SVG Version: 6.00 Build 0)  -->
<svg xmlns="http://www.w3.org/2000/svg" xmlns:xlink="http://www.w3.org/1999/xlink" version="1.1" id="Layer_1" x="0px" y="0px" viewBox="0 0 512 512" style="enable-background:new 0 0 512 512;" xml:space="preserve">
<g>
	<g>
		<path d="M437.019,74.981C388.668,26.628,324.38,0,256,0S123.332,26.628,74.981,74.981S0,187.62,0,256    s26.628,132.668,74.981,181.019S187.62,512,256,512s132.668-26.628,181.019-74.981S512,324.38,512,256    S485.372,123.332,437.019,74.981z M425.291,86.709c18.937,18.937,34.296,40.497,45.77,63.847H235.784l114.67-114.671    C378.048,47.732,403.416,64.835,425.291,86.709z M167.144,33.566c27.89-11.136,57.921-16.979,88.856-16.979    c26.782,0,52.886,4.384,77.512,12.782L167.144,195.737V33.566z M86.709,86.709c18.937-18.937,40.496-34.296,63.847-45.77v235.278    L35.885,161.545C47.733,133.951,64.836,108.583,86.709,86.709z M16.587,256c0-26.782,4.384-52.886,12.782-77.512l166.366,166.367    H33.566C22.432,316.966,16.587,286.935,16.587,256z M86.709,425.291c-18.937-18.937-34.296-40.497-45.77-63.847h235.278    L161.545,476.115C133.952,464.268,108.584,447.164,86.709,425.291z M344.855,478.434c-27.889,11.136-57.92,16.979-88.855,16.979    c-26.782,0-52.886-4.384-77.512-12.782l166.367-166.367V478.434z M344.856,292.891c-0.25,0.198-0.494,0.408-0.725,0.639    l-51.343,51.343c-0.118-0.006-0.236-0.018-0.356-0.018h-73.247c-0.038-0.039-0.07-0.081-0.107-0.118l-51.986-51.986    c0.034-0.304,0.054-0.613,0.054-0.926v-72.628l52.051-52.052h73.64c0.097,0.107,0.187,0.219,0.291,0.322l51.729,51.729V292.891z     M425.291,425.291c-18.937,18.937-40.496,34.296-63.847,45.77V235.783l114.671,114.671    C464.268,378.048,447.164,403.416,425.291,425.291z M316.263,167.144h162.17c11.135,27.89,16.979,57.921,16.979,88.856    c0,26.782-4.384,52.885-12.782,77.511L316.263,167.144z"/>
	</g>
</g>
<g>
</g>
<g>
</g>
<g>
</g>
<g>
</g>
<g>
</g>
<g>
</g>
<g>
</g>
<g>
</g>
<g>
</g>
<g>
</g>
<g>
</g>
<g>
</g>
<g>
</g>
<g>
</g>
<g>
</g>
</svg>
