<?xml version="1.0" encoding="iso-8859-1"?>
<!-- Generator: Adobe Illustrator 19.0.0, SVG Export Plug-In . SVG Version: 6.00 Build 0)  -->
<svg xmlns="http://www.w3.org/2000/svg" xmlns:xlink="http://www.w3.org/1999/xlink" version="1.1" id="Layer_1" x="0px" y="0px" viewBox="0 0 512 512" style="enable-background:new 0 0 512 512;" xml:space="preserve">
<g>
	<g>
		<path d="M219.555,321.888c-3.761-3.487-6.999-7.48-9.623-11.869c-2.351-3.931-7.443-5.213-11.375-2.862    c-3.932,2.35-5.213,7.442-2.863,11.375c3.434,5.744,7.669,10.965,12.585,15.523c1.596,1.48,3.617,2.211,5.635,2.211    c2.229,0,4.451-0.892,6.085-2.656C223.114,330.249,222.915,325.001,219.555,321.888z"/>
	</g>
</g>
<g>
	<g>
		<path d="M199.66,252.921c-4.408-1.251-8.994,1.302-10.248,5.707c-1.896,6.665-3.064,13.086-3.469,19.089    c-0.307,4.57,3.147,8.525,7.718,8.833c0.19,0.013,0.379,0.02,0.567,0.02c4.325,0,7.971-3.356,8.266-7.736    c0.326-4.845,1.293-10.115,2.873-15.665C206.621,258.763,204.066,254.175,199.66,252.921z"/>
	</g>
</g>
<g>
	<g>
		<path d="M226.237,204.447c-3.826-2.519-8.969-1.462-11.489,2.363c-3.472,5.269-6.686,10.511-9.555,15.578    c-2.256,3.985-0.853,9.047,3.133,11.303c1.291,0.731,2.694,1.078,4.078,1.078c2.891,0,5.699-1.515,7.226-4.21    c2.685-4.744,5.703-9.665,8.969-14.623C231.12,212.112,230.062,206.967,226.237,204.447z"/>
	</g>
</g>
<g>
	<g>
		<path d="M326.031,277.364c-0.432-5.99-1.621-12.403-3.535-19.059c-1.267-4.402-5.863-6.94-10.263-5.678    c-4.401,1.266-6.943,5.861-5.678,10.263c1.597,5.551,2.583,10.823,2.933,15.667c0.314,4.366,3.953,7.698,8.264,7.698    c0.2,0,0.401-0.008,0.605-0.022C322.925,285.903,326.361,281.933,326.031,277.364z"/>
	</g>
</g>
<g>
	<g>
		<path d="M273.176,342.631c-0.658-4.534-4.862-7.673-9.4-7.016c-5.018,0.729-10.261,0.741-15.287,0.038    c-4.534-0.634-8.729,2.527-9.364,7.064c-0.635,4.536,2.527,8.728,7.064,9.364c3.228,0.452,6.528,0.681,9.811,0.681    c3.4,0,6.819-0.245,10.159-0.731C270.693,351.372,273.834,347.165,273.176,342.631z"/>
	</g>
</g>
<g>
	<g>
		<path d="M306.649,222.116c-2.87-5.056-6.089-10.293-9.57-15.566c-2.523-3.823-7.668-4.876-11.491-2.352s-4.876,7.669-2.352,11.491    c3.277,4.964,6.3,9.881,8.987,14.615c1.528,2.69,4.334,4.202,7.221,4.202c1.388,0,2.793-0.348,4.086-1.083    C307.515,231.163,308.911,226.101,306.649,222.116z"/>
	</g>
</g>
<g>
	<g>
		<path d="M313.568,306.868c-3.939-2.328-9.028-1.024-11.359,2.918c-2.603,4.403-5.821,8.412-9.563,11.916    c-3.343,3.131-3.517,8.379-0.387,11.723c1.633,1.745,3.843,2.626,6.058,2.626c2.03,0,4.066-0.741,5.666-2.239    c4.893-4.58,9.1-9.824,12.506-15.583C318.819,314.285,317.512,309.198,313.568,306.868z"/>
	</g>
</g>
<g>
	<g>
		<path d="M274.076,175.627c-7.003-8.464-11.858-13.59-12.061-13.803c-3.155-3.323-8.401-3.458-11.723-0.306    c-0.145,0.138-0.284,0.279-0.417,0.425c-0.049,0.05-0.097,0.1-0.145,0.15c-1.247,1.333-5.8,6.263-12.007,13.775    c-2.917,3.531-2.42,8.759,1.111,11.676c1.546,1.277,3.418,1.9,5.278,1.9c2.388,0,4.758-1.026,6.397-3.011    c2.038-2.466,3.894-4.645,5.489-6.484c1.547,1.784,3.337,3.884,5.299,6.253c2.921,3.53,8.148,4.021,11.678,1.101    C276.503,184.384,276.998,179.156,274.076,175.627z"/>
	</g>
</g>
<g>
	<g>
		<path d="M503.706,406.946h-80.173v-80.173V185.227v-80.173h80.173c4.581,0,8.294-3.713,8.294-8.294    c0-4.58-3.712-8.294-8.294-8.294h-80.173V8.294c0-4.58-3.712-8.294-8.294-8.294c-4.581,0-8.294,3.713-8.294,8.294v80.173h-80.173    H185.227h-80.173V8.294c0-4.58-3.712-8.294-8.294-8.294s-8.294,3.713-8.294,8.294v80.173H8.294C3.712,88.466,0,92.18,0,96.76    c0,4.58,3.712,8.294,8.294,8.294h80.173v80.173v141.546v80.173H8.294c-4.581,0-8.294,3.713-8.294,8.294    c0,4.58,3.712,8.294,8.294,8.294h80.173v80.173c0,4.58,3.712,8.294,8.294,8.294s8.294-3.713,8.294-8.294v-80.173h80.173h141.546    h80.173v80.173c0,4.58,3.712,8.294,8.294,8.294c4.581,0,8.294-3.713,8.294-8.294v-80.173h80.173c4.581,0,8.294-3.713,8.294-8.294    C512,410.659,508.288,406.946,503.706,406.946z M105.054,105.054h26.053c-10.253,6.943-19.11,15.8-26.053,26.053V105.054z     M105.054,406.946v-26.053c6.943,10.253,15.8,19.11,26.053,26.053H105.054z M406.946,406.946h-26.053    c10.253-6.943,19.11-15.8,26.053-26.053V406.946z M406.946,326.773c0,44.208-35.965,80.173-80.173,80.173H185.227    c-44.208,0-80.173-35.965-80.173-80.173V185.227c0-44.208,35.965-80.173,80.173-80.173h141.546    c44.208,0,80.173,35.965,80.173,80.173V326.773z M406.946,131.107c-6.943-10.253-15.8-19.11-26.053-26.053h26.053V131.107z"/>
	</g>
</g>
<g>
</g>
<g>
</g>
<g>
</g>
<g>
</g>
<g>
</g>
<g>
</g>
<g>
</g>
<g>
</g>
<g>
</g>
<g>
</g>
<g>
</g>
<g>
</g>
<g>
</g>
<g>
</g>
<g>
</g>
</svg>
