<?xml version="1.0" encoding="iso-8859-1"?>
<!-- Generator: Adobe Illustrator 19.0.0, SVG Export Plug-In . SVG Version: 6.00 Build 0)  -->
<svg xmlns="http://www.w3.org/2000/svg" xmlns:xlink="http://www.w3.org/1999/xlink" version="1.1" id="Layer_1" x="0px" y="0px" viewBox="0 0 512 512" style="enable-background:new 0 0 512 512;" xml:space="preserve">
<g>
	<g>
		<path d="M79.067,17.693H51.974v-9.4C51.974,3.713,48.262,0,43.68,0H8.294C3.712,0,0,3.713,0,8.294V43.68    c0,4.58,3.712,8.294,8.294,8.294h9.4v27.093c0,4.58,3.712,8.294,8.294,8.294c4.581,0,8.294-3.713,8.294-8.294V51.974h5.964    l9.345,9.345c1.62,1.619,3.742,2.43,5.865,2.43c2.122,0,4.245-0.809,5.865-2.43c3.239-3.239,3.239-8.491,0-11.728l-9.346-9.346    v-5.964h27.093c4.581,0,8.294-3.713,8.294-8.294C87.361,21.407,83.648,17.693,79.067,17.693z M35.387,35.387H16.587V16.587h18.799    V35.387z"/>
	</g>
</g>
<g>
	<g>
		<path d="M503.706,0H468.32c-4.581,0-8.294,3.713-8.294,8.294v9.4h-27.093c-4.581,0-8.294,3.713-8.294,8.294    c0,4.58,3.712,8.294,8.294,8.294h27.093v5.964l-9.345,9.345c-3.239,3.239-3.239,8.491,0,11.728c1.62,1.619,3.743,2.43,5.865,2.43    c2.123,0,4.245-0.809,5.865-2.43l9.344-9.344h5.964v27.093c0,4.58,3.712,8.294,8.294,8.294s8.294-3.713,8.294-8.294V51.974h9.4    c4.581,0,8.294-3.713,8.294-8.294V8.294C512,3.713,508.288,0,503.706,0z M495.413,35.387h-18.799V16.587h18.799V35.387z"/>
	</g>
</g>
<g>
	<g>
		<path d="M503.706,460.026h-9.4v-27.093c0-4.58-3.712-8.294-8.294-8.294s-8.294,3.713-8.294,8.294v27.093h-5.964l-10.082-10.082    c-3.241-3.24-8.492-3.238-11.73,0c-3.239,3.239-3.239,8.491,0,11.728l10.082,10.082v5.965h-27.093    c-4.581,0-8.294,3.713-8.294,8.294c0,4.58,3.712,8.294,8.294,8.294h27.093v9.4c0,4.58,3.712,8.294,8.294,8.294h35.387    c4.581,0,8.294-3.713,8.294-8.294V468.32C512,463.739,508.288,460.026,503.706,460.026z M495.413,495.413h-18.799v-18.799h18.799    V495.413z"/>
	</g>
</g>
<g>
	<g>
		<path d="M25.987,212.32c-4.581,0-8.294,3.713-8.294,8.294v17.693c0,4.58,3.712,8.294,8.294,8.294c4.581,0,8.294-3.713,8.294-8.294    v-17.693C34.281,216.033,30.568,212.32,25.987,212.32z"/>
	</g>
</g>
<g>
	<g>
		<path d="M25.987,159.24c-4.581,0-8.294,3.713-8.294,8.294v17.693c0,4.58,3.712,8.294,8.294,8.294c4.581,0,8.294-3.713,8.294-8.294    v-17.693C34.281,162.953,30.568,159.24,25.987,159.24z"/>
	</g>
</g>
<g>
	<g>
		<path d="M25.987,265.4c-4.581,0-8.294,3.713-8.294,8.294v17.693c0,4.58,3.712,8.294,8.294,8.294c4.581,0,8.294-3.713,8.294-8.294    v-17.693C34.281,269.113,30.568,265.4,25.987,265.4z"/>
	</g>
</g>
<g>
	<g>
		<path d="M25.987,106.16c-4.581,0-8.294,3.713-8.294,8.294v17.693c0,4.58,3.712,8.294,8.294,8.294c4.581,0,8.294-3.713,8.294-8.294    v-17.693C34.281,109.873,30.568,106.16,25.987,106.16z"/>
	</g>
</g>
<g>
	<g>
		<path d="M25.987,318.479c-4.581,0-8.294,3.713-8.294,8.294v17.693c0,4.58,3.712,8.294,8.294,8.294    c4.581,0,8.294-3.713,8.294-8.294v-17.693C34.281,322.193,30.568,318.479,25.987,318.479z"/>
	</g>
</g>
<g>
	<g>
		<path d="M25.987,371.559c-4.581,0-8.294,3.713-8.294,8.294v17.693c0,4.58,3.712,8.294,8.294,8.294    c4.581,0,8.294-3.713,8.294-8.294v-17.693C34.281,375.273,30.568,371.559,25.987,371.559z"/>
	</g>
</g>
<g>
	<g>
		<path d="M486.013,212.32c-4.581,0-8.294,3.713-8.294,8.294v17.693c0,4.58,3.712,8.294,8.294,8.294s8.294-3.713,8.294-8.294    v-17.693C494.307,216.033,490.594,212.32,486.013,212.32z"/>
	</g>
</g>
<g>
	<g>
		<path d="M486.013,159.24c-4.581,0-8.294,3.713-8.294,8.294v17.693c0,4.58,3.712,8.294,8.294,8.294s8.294-3.713,8.294-8.294    v-17.693C494.307,162.953,490.594,159.24,486.013,159.24z"/>
	</g>
</g>
<g>
	<g>
		<path d="M486.013,265.4c-4.581,0-8.294,3.713-8.294,8.294v17.693c0,4.58,3.712,8.294,8.294,8.294s8.294-3.713,8.294-8.294v-17.693    C494.307,269.113,490.594,265.4,486.013,265.4z"/>
	</g>
</g>
<g>
	<g>
		<path d="M486.013,106.16c-4.581,0-8.294,3.713-8.294,8.294v17.693c0,4.58,3.712,8.294,8.294,8.294s8.294-3.713,8.294-8.294    v-17.693C494.307,109.873,490.594,106.16,486.013,106.16z"/>
	</g>
</g>
<g>
	<g>
		<path d="M486.013,318.479c-4.581,0-8.294,3.713-8.294,8.294v17.693c0,4.58,3.712,8.294,8.294,8.294s8.294-3.713,8.294-8.294    v-17.693C494.307,322.193,490.594,318.479,486.013,318.479z"/>
	</g>
</g>
<g>
	<g>
		<path d="M486.013,371.559c-4.581,0-8.294,3.713-8.294,8.294v17.693c0,4.58,3.712,8.294,8.294,8.294s8.294-3.713,8.294-8.294    v-17.693C494.307,375.273,490.594,371.559,486.013,371.559z"/>
	</g>
</g>
<g>
	<g>
		<path d="M238.307,477.719h-17.693c-4.581,0-8.294,3.713-8.294,8.294c0,4.58,3.712,8.294,8.294,8.294h17.693    c4.581,0,8.294-3.713,8.294-8.294C246.6,481.433,242.888,477.719,238.307,477.719z"/>
	</g>
</g>
<g>
	<g>
		<path d="M185.227,477.719h-17.693c-4.581,0-8.294,3.713-8.294,8.294c0,4.58,3.712,8.294,8.294,8.294h17.693    c4.581,0,8.294-3.713,8.294-8.294C193.521,481.433,189.808,477.719,185.227,477.719z"/>
	</g>
</g>
<g>
	<g>
		<path d="M291.387,477.719h-17.693c-4.581,0-8.294,3.713-8.294,8.294c0,4.58,3.712,8.294,8.294,8.294h17.693    c4.581,0,8.294-3.713,8.294-8.294C299.68,481.433,295.968,477.719,291.387,477.719z"/>
	</g>
</g>
<g>
	<g>
		<path d="M132.147,477.719h-17.693c-4.581,0-8.294,3.713-8.294,8.294c0,4.58,3.712,8.294,8.294,8.294h17.693    c4.581,0,8.294-3.713,8.294-8.294C140.441,481.433,136.728,477.719,132.147,477.719z"/>
	</g>
</g>
<g>
	<g>
		<path d="M79.067,477.719H51.974v-5.964l10.082-10.082c3.239-3.239,3.239-8.491,0-11.728c-3.239-3.238-8.49-3.24-11.73,0    l-10.082,10.081h-5.964v-27.093c0-4.58-3.712-8.294-8.294-8.294c-4.581,0-8.294,3.713-8.294,8.294v27.093h-9.4    c-4.581,0-8.294,3.713-8.294,8.294v35.387C0,508.287,3.712,512,8.294,512H43.68c4.581,0,8.294-3.713,8.294-8.294v-9.4h27.093    c4.581,0,8.294-3.713,8.294-8.294C87.361,481.433,83.648,477.719,79.067,477.719z M35.387,495.413H16.587v-18.799h18.799V495.413z    "/>
	</g>
</g>
<g>
	<g>
		<path d="M344.466,477.719h-17.693c-4.581,0-8.294,3.713-8.294,8.294c0,4.58,3.712,8.294,8.294,8.294h17.693    c4.581,0,8.294-3.713,8.294-8.294C352.76,481.433,349.048,477.719,344.466,477.719z"/>
	</g>
</g>
<g>
	<g>
		<path d="M397.546,477.719h-17.693c-4.581,0-8.294,3.713-8.294,8.294c0,4.58,3.712,8.294,8.294,8.294h17.693    c4.581,0,8.294-3.713,8.294-8.294C405.84,481.433,402.128,477.719,397.546,477.719z"/>
	</g>
</g>
<g>
	<g>
		<path d="M238.307,17.693h-17.693c-4.581,0-8.294,3.713-8.294,8.294c0,4.58,3.712,8.294,8.294,8.294h17.693    c4.581,0,8.294-3.713,8.294-8.294C246.6,21.407,242.888,17.693,238.307,17.693z"/>
	</g>
</g>
<g>
	<g>
		<path d="M185.227,17.693h-17.693c-4.581,0-8.294,3.713-8.294,8.294c0,4.58,3.712,8.294,8.294,8.294h17.693    c4.581,0,8.294-3.713,8.294-8.294C193.521,21.407,189.808,17.693,185.227,17.693z"/>
	</g>
</g>
<g>
	<g>
		<path d="M291.387,17.693h-17.693c-4.581,0-8.294,3.713-8.294,8.294c0,4.58,3.712,8.294,8.294,8.294h17.693    c4.581,0,8.294-3.713,8.294-8.294C299.68,21.407,295.968,17.693,291.387,17.693z"/>
	</g>
</g>
<g>
	<g>
		<path d="M132.147,17.693h-17.693c-4.581,0-8.294,3.713-8.294,8.294c0,4.58,3.712,8.294,8.294,8.294h17.693    c4.581,0,8.294-3.713,8.294-8.294C140.441,21.407,136.728,17.693,132.147,17.693z"/>
	</g>
</g>
<g>
	<g>
		<path d="M344.466,17.693h-17.693c-4.581,0-8.294,3.713-8.294,8.294c0,4.58,3.712,8.294,8.294,8.294h17.693    c4.581,0,8.294-3.713,8.294-8.294C352.76,21.407,349.048,17.693,344.466,17.693z"/>
	</g>
</g>
<g>
	<g>
		<path d="M397.546,17.693h-17.693c-4.581,0-8.294,3.713-8.294,8.294c0,4.58,3.712,8.294,8.294,8.294h17.693    c4.581,0,8.294-3.713,8.294-8.294C405.84,21.407,402.128,17.693,397.546,17.693z"/>
	</g>
</g>
<g>
	<g>
		<path d="M137.123,374.879c-3.239-3.238-8.491-3.239-11.728,0l-12.511,12.51c-3.241,3.238-3.241,8.49-0.002,11.728    c1.62,1.619,3.742,2.43,5.865,2.43c2.122,0,4.245-0.809,5.864-2.428l12.511-12.51C140.362,383.37,140.362,378.118,137.123,374.879    z"/>
	</g>
</g>
<g>
	<g>
		<path d="M212.189,299.812c-3.242-3.241-8.493-3.239-11.731,0l-12.51,12.51c-3.239,3.239-3.239,8.491,0,11.728    c1.62,1.619,3.743,2.43,5.865,2.43c2.122,0,4.245-0.809,5.865-2.43l12.51-12.51C215.428,308.301,215.428,303.05,212.189,299.812z"/>
	</g>
</g>
<g>
	<g>
		<path d="M287.256,224.746c-3.239-3.238-8.491-3.24-11.73-0.001l-12.511,12.51c-3.24,3.239-3.24,8.491-0.001,11.729    c1.62,1.619,3.742,2.43,5.865,2.43c2.122,0,4.245-0.81,5.864-2.428l12.511-12.51C290.495,233.236,290.495,227.985,287.256,224.746    z"/>
	</g>
</g>
<g>
	<g>
		<path d="M437.386,74.613c-3.237-3.239-8.488-3.24-11.728,0l-12.51,12.511c-3.239,3.239-3.239,8.491,0.001,11.728    c1.618,1.62,3.741,2.43,5.863,2.43c2.123,0,4.245-0.809,5.865-2.43l12.51-12.511C440.626,83.102,440.626,77.851,437.386,74.613z"/>
	</g>
</g>
<g>
	<g>
		<path d="M324.789,187.212c-3.241-3.238-8.492-3.238-11.731,0l-12.51,12.51c-3.239,3.239-3.239,8.491,0,11.728    c1.62,1.619,3.743,2.43,5.865,2.43s4.245-0.809,5.865-2.43l12.51-12.51C328.028,195.701,328.028,190.45,324.789,187.212z"/>
	</g>
</g>
<g>
	<g>
		<path d="M249.722,262.278c-3.239-3.24-8.491-3.238-11.73,0l-12.51,12.511c-3.239,3.239-3.239,8.491,0.001,11.728    c1.619,1.62,3.741,2.43,5.864,2.43c2.122,0,4.245-0.809,5.865-2.43l12.51-12.511C252.962,270.767,252.962,265.516,249.722,262.278    z"/>
	</g>
</g>
<g>
	<g>
		<path d="M99.589,412.411c-3.238-3.24-8.49-3.239-11.73,0l-12.51,12.511c-3.239,3.239-3.239,8.491,0.001,11.728    c1.619,1.619,3.742,2.43,5.864,2.43s4.245-0.809,5.865-2.43l12.51-12.511C102.829,420.9,102.829,415.649,99.589,412.411z"/>
	</g>
</g>
<g>
	<g>
		<path d="M399.855,112.146c-3.239-3.238-8.491-3.239-11.728,0l-12.511,12.51c-3.24,3.239-3.24,8.491-0.001,11.73    c1.62,1.619,3.742,2.43,5.865,2.43c2.122,0,4.245-0.809,5.864-2.428l12.511-12.51    C403.094,120.636,403.094,115.385,399.855,112.146z"/>
	</g>
</g>
<g>
	<g>
		<path d="M136.385,124.656l-12.511-12.51c-3.238-3.239-8.49-3.238-11.728,0c-3.239,3.239-3.239,8.491,0.001,11.73l12.511,12.51    c1.618,1.62,3.741,2.43,5.863,2.43s4.245-0.809,5.865-2.43C139.626,133.147,139.626,127.895,136.385,124.656z"/>
	</g>
</g>
<g>
	<g>
		<path d="M324.053,312.322l-12.511-12.51c-3.239-3.238-8.49-3.24-11.73,0c-3.239,3.239-3.239,8.491,0,11.728l12.51,12.51    c1.62,1.619,3.743,2.43,5.865,2.43c2.122,0,4.245-0.809,5.865-2.43C327.292,320.812,327.292,315.56,324.053,312.322z"/>
	</g>
</g>
<g>
	<g>
		<path d="M436.652,424.922l-12.51-12.511c-3.24-3.239-8.492-3.239-11.728,0c-3.24,3.239-3.24,8.49-0.001,11.728l12.51,12.511    c1.619,1.62,3.741,2.43,5.864,2.43c2.122,0,4.245-0.809,5.864-2.43C439.891,433.412,439.891,428.161,436.652,424.922z"/>
	</g>
</g>
<g>
	<g>
		<path d="M399.118,387.386l-12.513-12.509c-3.238-3.239-8.489-3.238-11.728,0c-3.239,3.239-3.239,8.491,0.001,11.73l12.511,12.51    c1.619,1.619,3.741,2.428,5.864,2.428c2.122,0,4.245-0.809,5.865-2.43C402.358,395.877,402.358,390.625,399.118,387.386z"/>
	</g>
</g>
<g>
	<g>
		<path d="M286.519,274.789l-12.511-12.511c-3.239-3.239-8.491-3.239-11.728,0c-3.24,3.239-3.24,8.49-0.001,11.728l12.51,12.511    c1.62,1.62,3.742,2.43,5.865,2.43c2.122,0,4.245-0.809,5.864-2.43C289.758,283.279,289.758,278.028,286.519,274.789z"/>
	</g>
</g>
<g>
	<g>
		<path d="M98.854,87.124L86.342,74.613c-3.239-3.239-8.491-3.24-11.728,0c-3.24,3.239-3.24,8.489-0.001,11.728l12.51,12.511    c1.62,1.62,3.742,2.43,5.865,2.43c2.122,0,4.245-0.809,5.864-2.43C102.093,95.614,102.093,90.363,98.854,87.124z"/>
	</g>
</g>
<g>
	<g>
		<path d="M248.986,237.255l-12.511-12.51c-3.238-3.239-8.489-3.238-11.728,0c-3.239,3.239-3.239,8.491,0.001,11.73l12.51,12.511    c1.619,1.619,3.742,2.428,5.864,2.428c2.123,0,4.245-0.81,5.865-2.43C252.226,245.746,252.226,240.494,248.986,237.255z"/>
	</g>
</g>
<g>
	<g>
		<path d="M211.453,199.723l-12.51-12.51c-3.24-3.239-8.491-3.239-11.73,0c-3.239,3.239-3.239,8.491,0,11.728l12.509,12.51    c1.62,1.619,3.743,2.43,5.865,2.43c2.122,0,4.245-0.81,5.865-2.43C214.692,208.213,214.692,202.961,211.453,199.723z"/>
	</g>
</g>
<g>
	<g>
		<path d="M339.048,174.736c1.454,1.069,3.175,1.613,4.899,1.613c2.123,0,4.245-0.81,5.865-2.43l12.51-12.511    c3.239-3.239,3.239-8.491-0.001-11.728c-3.238-3.24-8.489-3.239-11.728,0l-12.51,12.511c-2.009,2.009-2.769,4.793-2.286,7.39    c-3.501-5.483-7.171-11.041-11.021-16.676c-30.962-45.339-61.431-78.123-62.712-79.496c-1.57-1.682-3.765-2.636-6.064-2.636    s-4.494,0.954-6.063,2.635c-1.281,1.373-31.75,34.157-62.712,79.496c-3.848,5.635-7.52,11.193-11.021,16.676    c0.484-2.598-0.276-5.381-2.286-7.39l-12.51-12.511c-3.239-3.239-8.491-3.239-11.728,0c-3.24,3.239-3.24,8.49-0.001,11.728    l12.51,12.511c1.62,1.62,3.742,2.43,5.865,2.43c1.724,0,3.445-0.544,4.899-1.613c-32.594,52.234-49.1,97.349-49.1,134.345    c0,72.867,59.28,132.147,132.147,132.147s132.147-59.28,132.147-132.147C388.147,272.083,371.641,226.969,339.048,174.736z     M361.586,349.855l-12.51-12.511c-3.239-3.239-8.491-3.24-11.728,0c-3.24,3.239-3.24,8.49-0.001,11.728l12.51,12.511    c1.62,1.62,3.742,2.43,5.865,2.43c0.696,0,1.39-0.096,2.068-0.27c-19.532,36.223-57.833,60.896-101.79,60.896    s-82.257-24.673-101.788-60.895c0.678,0.174,1.372,0.27,2.068,0.27c2.122,0,4.245-0.81,5.865-2.43l12.51-12.511    c3.239-3.239,3.239-8.491-0.001-11.728c-3.238-3.24-8.49-3.239-11.728,0l-12.51,12.511c-0.696,0.696-1.232,1.487-1.629,2.329    c-5.378-13.327-8.346-27.876-8.346-43.105c0-80.746,90.956-189.627,115.559-217.596c24.604,27.969,115.559,136.85,115.559,217.596    c0,15.23-2.968,29.778-8.345,43.104C362.818,351.343,362.281,350.551,361.586,349.855z"/>
	</g>
</g>
<g>
</g>
<g>
</g>
<g>
</g>
<g>
</g>
<g>
</g>
<g>
</g>
<g>
</g>
<g>
</g>
<g>
</g>
<g>
</g>
<g>
</g>
<g>
</g>
<g>
</g>
<g>
</g>
<g>
</g>
</svg>
