<?xml version="1.0" encoding="iso-8859-1"?>
<!-- Generator: Adobe Illustrator 19.0.0, SVG Export Plug-In . SVG Version: 6.00 Build 0)  -->
<svg xmlns="http://www.w3.org/2000/svg" xmlns:xlink="http://www.w3.org/1999/xlink" version="1.1" id="Layer_1" x="0px" y="0px" viewBox="0 0 512 512" style="enable-background:new 0 0 512 512;" xml:space="preserve">
<g>
	<g>
		<path d="M477.166,70.773H34.834C15.627,70.773,0,86.4,0,105.607v300.786c0,19.207,15.627,34.834,34.834,34.834h442.333    c19.207,0,34.834-15.626,34.834-34.834V105.607C512,86.4,496.373,70.773,477.166,70.773z M495.413,406.393    c0,10.061-8.184,18.246-18.246,18.246H34.834c-10.062,0-18.246-8.185-18.246-18.246V105.607c0-10.061,8.184-18.246,18.246-18.246    h442.333c10.062,0,18.246,8.185,18.246,18.246V406.393z"/>
	</g>
</g>
<g>
	<g>
		<path d="M450.626,141.546H61.374c-14.329,0-25.987,11.658-25.987,25.987V309.08c0,14.329,11.658,25.987,25.987,25.987h389.253    c14.329,0,25.987-11.658,25.987-25.987V167.533C476.613,153.204,464.956,141.546,450.626,141.546z M460.026,309.08    c0,5.183-4.216,9.4-9.4,9.4H61.374c-5.183,0-9.4-4.217-9.4-9.4V167.533c0-5.183,4.217-9.4,9.4-9.4h389.253    c5.183,0,9.4,4.217,9.4,9.4V309.08z"/>
	</g>
</g>
<g>
	<g>
		<path d="M353.313,353.866h-35.387c-14.329,0-25.987,11.658-25.987,25.987c0,14.329,11.658,25.987,25.987,25.987h35.387    c14.329,0,25.987-11.658,25.987-25.987C379.3,365.524,367.643,353.866,353.313,353.866z M353.313,389.253h-35.387    c-5.183,0-9.4-4.216-9.4-9.4s4.217-9.4,9.4-9.4h35.387c5.183,0,9.4,4.217,9.4,9.4S358.496,389.253,353.313,389.253z"/>
	</g>
</g>
<g>
	<g>
		<path d="M61.374,353.866c-14.329,0-25.987,11.658-25.987,25.987c0,14.329,11.658,25.987,25.987,25.987    s25.987-11.658,25.987-25.987C87.361,365.524,75.703,353.866,61.374,353.866z M61.374,389.253c-5.183,0-9.4-4.216-9.4-9.4    s4.217-9.4,9.4-9.4s9.4,4.217,9.4,9.4S66.557,389.253,61.374,389.253z"/>
	</g>
</g>
<g>
	<g>
		<path d="M123.3,353.866c-14.329,0-25.987,11.658-25.987,25.987c0,14.329,11.658,25.987,25.987,25.987    c14.329,0,25.987-11.658,25.987-25.987C149.287,365.524,137.63,353.866,123.3,353.866z M123.3,389.253c-5.183,0-9.4-4.216-9.4-9.4    s4.217-9.4,9.4-9.4c5.183,0,9.4,4.217,9.4,9.4S128.483,389.253,123.3,389.253z"/>
	</g>
</g>
<g>
	<g>
		<path d="M185.227,353.866c-14.329,0-25.987,11.658-25.987,25.987c0,14.329,11.658,25.987,25.987,25.987    c14.329,0,25.987-11.658,25.987-25.987C211.214,365.524,199.556,353.866,185.227,353.866z M185.227,389.253    c-5.183,0-9.4-4.216-9.4-9.4s4.217-9.4,9.4-9.4c5.183,0,9.4,4.217,9.4,9.4S190.41,389.253,185.227,389.253z"/>
	</g>
</g>
<g>
	<g>
		<path d="M450.626,353.866H415.24c-14.329,0-25.987,11.658-25.987,25.987c0,14.329,11.658,25.987,25.987,25.987h35.387    c14.329,0,25.987-11.658,25.987-25.987C476.613,365.524,464.956,353.866,450.626,353.866z M450.626,389.253H415.24    c-5.183,0-9.4-4.216-9.4-9.4s4.217-9.4,9.4-9.4h35.387c5.183,0,9.4,4.217,9.4,9.4S455.809,389.253,450.626,389.253z"/>
	</g>
</g>
<g>
	<g>
		<path d="M335.62,176.933H79.067c-4.581,0-8.294,3.713-8.294,8.294c0,4.58,3.712,8.294,8.294,8.294H335.62    c4.581,0,8.294-3.713,8.294-8.294C343.914,180.646,340.201,176.933,335.62,176.933z"/>
	</g>
</g>
<g>
	<g>
		<path d="M229.46,212.32H79.067c-4.581,0-8.294,3.713-8.294,8.294c0,4.58,3.712,8.294,8.294,8.294H229.46    c4.581,0,8.294-3.713,8.294-8.294C237.754,216.033,234.042,212.32,229.46,212.32z"/>
	</g>
</g>
<g>
	<g>
		<path d="M167.533,283.093H79.067c-4.581,0-8.294,3.713-8.294,8.294c0,4.58,3.712,8.294,8.294,8.294h88.466    c4.581,0,8.294-3.713,8.294-8.294C175.827,286.806,172.115,283.093,167.533,283.093z"/>
	</g>
</g>
<g>
	<g>
		<path d="M140.994,106.16H79.067c-4.581,0-8.294,3.713-8.294,8.294c0,4.58,3.712,8.294,8.294,8.294h61.927    c4.581,0,8.294-3.713,8.294-8.294C149.287,109.873,145.575,106.16,140.994,106.16z"/>
	</g>
</g>
<g>
	<g>
		<path d="M238.307,106.16H176.38c-4.581,0-8.294,3.713-8.294,8.294c0,4.58,3.712,8.294,8.294,8.294h61.927    c4.581,0,8.294-3.713,8.294-8.294C246.6,109.873,242.888,106.16,238.307,106.16z"/>
	</g>
</g>
<g>
	<g>
		<path d="M335.62,106.16h-61.927c-4.581,0-8.294,3.713-8.294,8.294c0,4.58,3.712,8.294,8.294,8.294h61.927    c4.581,0,8.294-3.713,8.294-8.294C343.914,109.873,340.201,106.16,335.62,106.16z"/>
	</g>
</g>
<g>
	<g>
		<path d="M432.933,106.16h-61.927c-4.581,0-8.294,3.713-8.294,8.294c0,4.58,3.712,8.294,8.294,8.294h61.927    c4.581,0,8.294-3.713,8.294-8.294C441.227,109.873,437.515,106.16,432.933,106.16z"/>
	</g>
</g>
<g>
</g>
<g>
</g>
<g>
</g>
<g>
</g>
<g>
</g>
<g>
</g>
<g>
</g>
<g>
</g>
<g>
</g>
<g>
</g>
<g>
</g>
<g>
</g>
<g>
</g>
<g>
</g>
<g>
</g>
</svg>
