<?xml version="1.0" encoding="iso-8859-1"?>
<!-- Generator: Adobe Illustrator 19.0.0, SVG Export Plug-In . SVG Version: 6.00 Build 0)  -->
<svg xmlns="http://www.w3.org/2000/svg" xmlns:xlink="http://www.w3.org/1999/xlink" version="1.1" id="Layer_1" x="0px" y="0px" viewBox="0 0 512 512" style="enable-background:new 0 0 512 512;" xml:space="preserve">
<g>
	<g>
		<path d="M450.626,119.43H61.374c-4.58,0-8.294,3.713-8.294,8.294v212.32c0,4.58,3.713,8.294,8.294,8.294h389.253    c4.58,0,8.294-3.713,8.294-8.294v-212.32C458.92,123.143,455.207,119.43,450.626,119.43z M442.333,331.749H69.667V206.79h372.665    V331.749z M442.333,190.203H69.667v-54.186h372.665V190.203z"/>
	</g>
</g>
<g>
	<g>
		<path d="M202.92,154.816H96.76c-4.58,0-8.294,3.713-8.294,8.294c0,4.58,3.713,8.294,8.294,8.294h106.16    c4.58,0,8.294-3.713,8.294-8.294C211.214,158.53,207.5,154.816,202.92,154.816z"/>
	</g>
</g>
<g>
	<g>
		<path d="M256,154.816h-17.693c-4.58,0-8.294,3.713-8.294,8.294c0,4.58,3.713,8.294,8.294,8.294H256    c4.58,0,8.294-3.713,8.294-8.294C264.294,158.53,260.58,154.816,256,154.816z"/>
	</g>
</g>
<g>
	<g>
		<path d="M309.08,154.816h-17.693c-4.58,0-8.294,3.713-8.294,8.294c0,4.58,3.713,8.294,8.294,8.294h17.693    c4.58,0,8.294-3.713,8.294-8.294C317.374,158.53,313.66,154.816,309.08,154.816z"/>
	</g>
</g>
<g>
	<g>
		<path d="M362.16,154.816h-17.693c-4.58,0-8.294,3.713-8.294,8.294c0,4.58,3.713,8.294,8.294,8.294h17.693    c4.58,0,8.294-3.713,8.294-8.294C370.454,158.53,366.74,154.816,362.16,154.816z"/>
	</g>
</g>
<g>
	<g>
		<path d="M415.24,154.816h-17.693c-4.58,0-8.294,3.713-8.294,8.294c0,4.58,3.713,8.294,8.294,8.294h17.693    c4.58,0,8.294-3.713,8.294-8.294C423.533,158.53,419.82,154.816,415.24,154.816z"/>
	</g>
</g>
<g>
	<g>
		<path d="M238.307,225.59H96.76c-4.58,0-8.294,3.713-8.294,8.294v70.773c0,4.58,3.713,8.294,8.294,8.294h141.546    c4.58,0,8.294-3.713,8.294-8.294v-70.773C246.6,229.303,242.887,225.59,238.307,225.59z M230.013,296.363H105.054v-18.799h124.959    V296.363z M230.013,260.976H105.054v-18.799h124.959V260.976z"/>
	</g>
</g>
<g>
	<g>
		<path d="M415.24,225.59h-53.08c-4.58,0-8.294,3.713-8.294,8.294v70.773c0,4.58,3.713,8.294,8.294,8.294h53.08    c4.58,0,8.294-3.713,8.294-8.294v-70.773C423.533,229.303,419.82,225.59,415.24,225.59z M406.946,296.363h-36.492v-18.799h36.492    V296.363z M406.946,260.976h-36.492v-18.799h36.492V260.976z"/>
	</g>
</g>
<g>
	<g>
		<path d="M503.706,367.136h-9.4V118.877c0-19.207-15.627-34.834-34.834-34.834H52.527c-19.207,0-34.834,15.626-34.834,34.834    v248.259h-9.4c-4.58,0-8.294,3.713-8.294,8.294v17.693c0,19.207,15.627,34.834,34.834,34.834h442.333    c19.207,0,34.834-15.627,34.834-34.834V375.43C512,370.849,508.287,367.136,503.706,367.136z M34.281,118.877    c0-10.061,8.185-18.246,18.246-18.246h406.946c10.061,0,18.246,8.185,18.246,18.246v248.259H34.281V118.877z M495.413,393.123    c0,10.061-8.185,18.246-18.246,18.246H34.834c-10.061,0-18.246-8.185-18.246-18.246v-9.4h186.913    c-0.012,0.184-0.028,0.366-0.028,0.553c0,4.58,3.713,8.294,8.294,8.294h88.467c4.58,0,8.294-3.713,8.294-8.294    c0-0.187-0.016-0.369-0.028-0.553h186.913V393.123z"/>
	</g>
</g>
<g>
	<g>
		<path d="M326.773,225.59h-53.08c-4.58,0-8.294,3.713-8.294,8.294v70.773c0,4.58,3.713,8.294,8.294,8.294h53.08    c4.58,0,8.294-3.713,8.294-8.294v-70.773C335.067,229.303,331.354,225.59,326.773,225.59z M318.479,296.363h-36.492v-18.799    h36.492V296.363z M318.479,260.976h-36.492v-18.799h36.492V260.976z"/>
	</g>
</g>
<g>
</g>
<g>
</g>
<g>
</g>
<g>
</g>
<g>
</g>
<g>
</g>
<g>
</g>
<g>
</g>
<g>
</g>
<g>
</g>
<g>
</g>
<g>
</g>
<g>
</g>
<g>
</g>
<g>
</g>
</svg>
