<?xml version="1.0" encoding="iso-8859-1"?>
<!-- Generator: Adobe Illustrator 19.0.0, SVG Export Plug-In . SVG Version: 6.00 Build 0)  -->
<svg xmlns="http://www.w3.org/2000/svg" xmlns:xlink="http://www.w3.org/1999/xlink" version="1.1" id="Layer_1" x="0px" y="0px" viewBox="0 0 512 512" style="enable-background:new 0 0 512 512;" xml:space="preserve">
<g>
	<g>
		<path d="M468.32,79.62H317.927c-9.6,0-18.624-3.738-25.413-10.526l-27.169-27.168c-9.92-9.922-23.112-15.385-37.142-15.385    h-70.144c-0.07,0-0.136,0.009-0.205,0.01c-0.142-0.001-0.282-0.01-0.425-0.01H43.68C19.595,26.54,0,46.135,0,70.22v53.08V441.78    c0,24.085,19.595,43.68,43.68,43.68H468.32c24.085,0,43.68-19.595,43.68-43.68V123.3C512,99.215,492.405,79.62,468.32,79.62z     M228.203,43.127c9.6,0,18.624,3.738,25.413,10.526l25.966,25.966h-32.429c-9.6,0-18.624-3.739-25.413-10.526l-25.966-25.966    H228.203z M16.587,70.22c0-14.939,12.154-27.093,27.093-27.093H157.43c9.6,0,18.624,3.739,25.413,10.526l25.966,25.966H43.68    c-10.229,0-19.641,3.544-27.093,9.456V70.22z M495.413,441.78c0,14.939-12.154,27.093-27.093,27.093H43.68    c-14.939,0-27.093-12.154-27.093-27.093V123.3c0-14.939,12.154-27.093,27.093-27.093H468.32c14.939,0,27.093,12.154,27.093,27.093    V441.78z"/>
	</g>
</g>
<g>
	<g>
		<path d="M397.546,264.294c4.58,0,8.294-3.713,8.294-8.294v-70.773c0-4.58-3.713-8.294-8.294-8.294H114.454    c-4.58,0-8.294,3.713-8.294,8.294V256c0,4.58,3.713,8.294,8.294,8.294h27.093v36.492h-27.093c-4.58,0-8.294,3.713-8.294,8.294    v70.773c0,4.58,3.713,8.294,8.294,8.294h70.773c4.58,0,8.294-3.713,8.294-8.294V309.08c0-4.58-3.713-8.294-8.294-8.294h-27.093    v-36.492h89.572v36.492h-27.093c-4.58,0-8.294,3.713-8.294,8.294v70.773c0,4.58,3.713,8.294,8.294,8.294h70.773    c4.58,0,8.294-3.713,8.294-8.294V309.08c0-4.58-3.713-8.294-8.294-8.294h-27.093v-36.492h89.572v36.492h-27.093    c-4.58,0-8.294,3.713-8.294,8.294v70.773c0,4.58,3.713,8.294,8.294,8.294h70.773c4.58,0,8.294-3.713,8.294-8.294V309.08    c0-4.58-3.713-8.294-8.294-8.294h-27.093v-36.492H397.546z M176.933,317.374v54.186h-54.186v-54.186H176.933z M283.093,317.374    v54.186h-54.186v-54.186H283.093z M389.253,317.374v54.186h-54.186v-54.186H389.253z M122.747,247.706v-54.186h266.505v54.186    H122.747z"/>
	</g>
</g>
<g>
</g>
<g>
</g>
<g>
</g>
<g>
</g>
<g>
</g>
<g>
</g>
<g>
</g>
<g>
</g>
<g>
</g>
<g>
</g>
<g>
</g>
<g>
</g>
<g>
</g>
<g>
</g>
<g>
</g>
</svg>
