<?xml version="1.0" encoding="iso-8859-1"?>
<!-- Generator: Adobe Illustrator 19.0.0, SVG Export Plug-In . SVG Version: 6.00 Build 0)  -->
<svg xmlns="http://www.w3.org/2000/svg" xmlns:xlink="http://www.w3.org/1999/xlink" version="1.1" id="Layer_1" x="0px" y="0px" viewBox="0 0 512 512" style="enable-background:new 0 0 512 512;" xml:space="preserve">
<g>
	<g>
		<path d="M300.233,0h-88.467c-14.329,0-25.987,11.658-25.987,25.987v460.026c0,14.329,11.658,25.987,25.987,25.987h88.467    c14.329,0,25.987-11.658,25.987-25.987V25.987C326.22,11.658,314.563,0,300.233,0z M309.633,35.387h-35.94    c-4.58,0-8.294,3.712-8.294,8.294c0,4.581,3.713,8.294,8.294,8.294h35.94v18.799h-18.246c-4.58,0-8.294,3.712-8.294,8.294    s3.713,8.294,8.294,8.294h18.246v18.799h-35.94c-4.58,0-8.294,3.712-8.294,8.294c0,4.581,3.713,8.294,8.294,8.294h35.94v18.799    h-18.246c-4.58,0-8.294,3.712-8.294,8.294c0,4.581,3.713,8.294,8.294,8.294h18.246v18.799h-35.94c-4.58,0-8.294,3.712-8.294,8.294    c0,4.581,3.713,8.294,8.294,8.294h35.94v18.799h-18.246c-4.58,0-8.294,3.712-8.294,8.294c0,4.581,3.713,8.294,8.294,8.294h18.246    v18.799h-35.94c-4.58,0-8.294,3.712-8.294,8.294s3.713,8.294,8.294,8.294h35.94v18.799h-18.246c-4.58,0-8.294,3.712-8.294,8.294    s3.713,8.294,8.294,8.294h18.246v18.799h-35.94c-4.58,0-8.294,3.712-8.294,8.294c0,4.581,3.713,8.294,8.294,8.294h35.94v18.799    h-18.246c-4.58,0-8.294,3.712-8.294,8.294c0,4.581,3.713,8.294,8.294,8.294h18.246v18.799h-35.94c-4.58,0-8.294,3.712-8.294,8.294    c0,4.581,3.713,8.294,8.294,8.294h35.94v18.799h-18.246c-4.58,0-8.294,3.712-8.294,8.294s3.713,8.294,8.294,8.294h18.246v18.799    h-35.94c-4.58,0-8.294,3.712-8.294,8.294s3.713,8.294,8.294,8.294h35.94v9.4c0,5.183-4.216,9.4-9.4,9.4h-88.467    c-5.183,0-9.4-4.217-9.4-9.4V25.987c0-5.183,4.216-9.4,9.4-9.4h88.467c5.183,0,9.4,4.217,9.4,9.4V35.387z"/>
	</g>
</g>
<g>
</g>
<g>
</g>
<g>
</g>
<g>
</g>
<g>
</g>
<g>
</g>
<g>
</g>
<g>
</g>
<g>
</g>
<g>
</g>
<g>
</g>
<g>
</g>
<g>
</g>
<g>
</g>
<g>
</g>
</svg>
