<?xml version="1.0" encoding="iso-8859-1"?>
<!-- Generator: Adobe Illustrator 19.0.0, SVG Export Plug-In . SVG Version: 6.00 Build 0)  -->
<svg xmlns="http://www.w3.org/2000/svg" xmlns:xlink="http://www.w3.org/1999/xlink" version="1.1" id="Layer_1" x="0px" y="0px" viewBox="0 0 512 512" style="enable-background:new 0 0 512 512;" xml:space="preserve">
<g>
	<g>
		<path d="M273.694,0h-35.387c-24.085,0-43.68,19.595-43.68,43.68V362.16c0,0.265,0.014,0.53,0.04,0.792    c0.011,0.112,0.03,0.22,0.044,0.331c0.02,0.147,0.039,0.294,0.067,0.44c0.025,0.133,0.057,0.262,0.09,0.393    c0.029,0.119,0.057,0.239,0.092,0.357c0.04,0.137,0.085,0.272,0.132,0.406c0.022,0.064,0.039,0.13,0.063,0.195l53.08,141.546    c1.214,3.237,4.308,5.381,7.765,5.381c3.457,0,6.552-2.144,7.765-5.381l53.08-141.546c0.024-0.064,0.041-0.13,0.063-0.195    c0.046-0.134,0.092-0.269,0.132-0.406c0.034-0.118,0.063-0.238,0.092-0.357c0.032-0.131,0.064-0.26,0.09-0.393    c0.028-0.146,0.048-0.293,0.067-0.44c0.014-0.111,0.034-0.219,0.044-0.331c0.025-0.263,0.04-0.527,0.04-0.792V43.68    C317.375,19.595,297.779,0,273.694,0z M211.215,131.594h36.492v222.272h-36.492V131.594z M256.001,480.086l-17.889-47.706h35.779    L256.001,480.086z M280.11,415.793h-48.22l-17.002-45.339h82.224L280.11,415.793z M300.787,353.866h-36.492V131.594h36.492    V353.866z M300.787,115.006h-89.572V96.207h89.572V115.006z M300.787,79.62h-89.572V43.68c0-14.94,12.154-27.093,27.093-27.093    h35.387c14.939,0,27.093,12.153,27.093,27.093V79.62z"/>
	</g>
</g>
<g>
</g>
<g>
</g>
<g>
</g>
<g>
</g>
<g>
</g>
<g>
</g>
<g>
</g>
<g>
</g>
<g>
</g>
<g>
</g>
<g>
</g>
<g>
</g>
<g>
</g>
<g>
</g>
<g>
</g>
</svg>
