<?xml version="1.0" encoding="iso-8859-1"?>
<!-- Generator: Adobe Illustrator 19.0.0, SVG Export Plug-In . SVG Version: 6.00 Build 0)  -->
<svg xmlns="http://www.w3.org/2000/svg" xmlns:xlink="http://www.w3.org/1999/xlink" version="1.1" id="Layer_1" x="0px" y="0px" viewBox="0 0 512.001 512.001" style="enable-background:new 0 0 512.001 512.001;" xml:space="preserve">
<g>
	<g>
		<path d="M486.013,389.253h-44.786V96.761c0-4.145-0.98-8.063-2.714-11.544l71.059-71.059c3.239-3.24,3.239-8.491,0-11.73    c-3.24-3.238-8.491-3.238-11.73,0l-71.059,71.059c-3.48-1.733-7.399-2.714-11.544-2.714H122.747V25.987    C122.747,11.658,111.09,0,96.76,0S70.773,11.658,70.773,25.987v44.786H25.987C11.658,70.774,0,82.431,0,96.761    s11.658,25.987,25.987,25.987h44.786V415.24c0,14.329,11.658,25.987,25.987,25.987h292.492v44.786    c0,14.329,11.658,25.987,25.987,25.987c14.329,0,25.987-11.658,25.987-25.987v-44.786h44.786    c14.329,0,25.987-11.658,25.987-25.987C512,400.911,500.342,389.253,486.013,389.253z M70.773,106.16H25.987    c-5.183,0-9.4-4.217-9.4-9.4s4.217-9.4,9.4-9.4h44.786V106.16z M122.747,122.748h254.776L122.747,377.524V122.748z     M389.253,424.64H96.76c-5.183,0-9.4-4.216-9.4-9.4V25.987c0-5.183,4.216-9.4,9.4-9.4s9.4,4.217,9.4,9.4v371.559    c0,4.581,3.712,8.294,8.294,8.294h274.799V424.64z M389.253,389.253H134.477l254.776-254.775V389.253z M424.639,486.013    c0,5.183-4.216,9.4-9.4,9.4s-9.4-4.217-9.4-9.4V114.454c0-4.581-3.712-8.294-8.294-8.294H122.747V87.361H415.24    c5.183,0,9.4,4.216,9.4,9.4V486.013z M486.013,424.64h-44.786v-18.799h44.786c5.183,0,9.4,4.217,9.4,9.4    S491.196,424.64,486.013,424.64z"/>
	</g>
</g>
<g>
</g>
<g>
</g>
<g>
</g>
<g>
</g>
<g>
</g>
<g>
</g>
<g>
</g>
<g>
</g>
<g>
</g>
<g>
</g>
<g>
</g>
<g>
</g>
<g>
</g>
<g>
</g>
<g>
</g>
</svg>
