<?xml version="1.0" encoding="iso-8859-1"?>
<!-- Generator: Adobe Illustrator 19.0.0, SVG Export Plug-In . SVG Version: 6.00 Build 0)  -->
<svg xmlns="http://www.w3.org/2000/svg" xmlns:xlink="http://www.w3.org/1999/xlink" version="1.1" id="Layer_1" x="0px" y="0px" viewBox="0 0 512 512" style="enable-background:new 0 0 512 512;" xml:space="preserve">
<g>
	<g>
		<path d="M503.706,460.026H468.32c-4.58,0-8.294,3.713-8.294,8.294v35.387c0,4.58,3.713,8.294,8.294,8.294    c4.58,0,8.294-3.713,8.294-8.294v-27.093h27.093c4.58,0,8.294-3.713,8.294-8.294C512,463.739,508.287,460.026,503.706,460.026z"/>
	</g>
</g>
<g>
	<g>
		<path d="M503.706,35.387h-27.093V8.294c0-4.58-3.713-8.294-8.294-8.294c-4.58,0-8.294,3.713-8.294,8.294V43.68    c0,4.58,3.713,8.294,8.294,8.294h35.387c4.58,0,8.294-3.713,8.294-8.294C512,39.1,508.287,35.387,503.706,35.387z"/>
	</g>
</g>
<g>
	<g>
		<path d="M43.68,0c-4.58,0-8.294,3.713-8.294,8.294v27.093H8.294C3.713,35.387,0,39.1,0,43.68c0,4.58,3.713,8.294,8.294,8.294    H43.68c4.58,0,8.294-3.713,8.294-8.294V8.294C51.974,3.713,48.261,0,43.68,0z"/>
	</g>
</g>
<g>
	<g>
		<path d="M43.68,460.026H8.294c-4.58,0-8.294,3.713-8.294,8.294c0,4.58,3.713,8.294,8.294,8.294h27.093v27.093    c0,4.58,3.713,8.294,8.294,8.294c4.58,0,8.294-3.713,8.294-8.294V468.32C51.974,463.739,48.261,460.026,43.68,460.026z"/>
	</g>
</g>
<g>
	<g>
		<path d="M441.78,398.099h-9.427c0.012-0.184,0.028-0.366,0.028-0.553v-17.693c0-4.58-3.713-8.294-8.294-8.294    c-4.58,0-8.294,3.713-8.294,8.294v17.693c0,0.187,0.015,0.369,0.028,0.553h-9.427c-4.58,0-8.294,3.713-8.294,8.294v9.427    c-0.184-0.012-0.366-0.028-0.553-0.028h-17.693c-4.58,0-8.294,3.713-8.294,8.294c0,4.58,3.713,8.294,8.294,8.294h17.693    c0.187,0,0.369-0.016,0.553-0.028v9.427c0,4.58,3.713,8.294,8.294,8.294h35.387c4.58,0,8.294-3.713,8.294-8.294v-35.387    C450.073,401.813,446.36,398.099,441.78,398.099z M433.486,433.486h-18.799v-18.799h18.799V433.486z"/>
	</g>
</g>
<g>
	<g>
		<path d="M441.78,61.927h-35.387c-4.58,0-8.294,3.713-8.294,8.294v9.427c-0.184-0.012-0.366-0.028-0.553-0.028h-17.693    c-4.58,0-8.294,3.713-8.294,8.294c0,4.58,3.713,8.294,8.294,8.294h17.693c0.187,0,0.369-0.016,0.553-0.028v9.427    c0,4.58,3.713,8.294,8.294,8.294h9.427c-0.012,0.184-0.028,0.366-0.028,0.553v17.693c0,4.58,3.713,8.294,8.294,8.294    c4.58,0,8.294-3.713,8.294-8.294v-17.693c0-0.187-0.016-0.369-0.028-0.553h9.427c4.58,0,8.294-3.713,8.294-8.294V70.22    C450.073,65.64,446.36,61.927,441.78,61.927z M433.486,97.313h-18.799V78.514h18.799V97.313z"/>
	</g>
</g>
<g>
	<g>
		<path d="M441.78,230.013h-9.4v-9.4c0-4.58-3.713-8.294-8.294-8.294c-4.58,0-8.294,3.713-8.294,8.294v9.4h-9.4    c-4.58,0-8.294,3.713-8.294,8.294v35.387c0,4.58,3.713,8.294,8.294,8.294h9.4v9.4c0,4.58,3.713,8.294,8.294,8.294    c4.58,0,8.294-3.713,8.294-8.294v-9.4h9.4c4.58,0,8.294-3.713,8.294-8.294v-35.387C450.073,233.726,446.36,230.013,441.78,230.013    z M433.486,265.4h-18.799V246.6h18.799V265.4z"/>
	</g>
</g>
<g>
	<g>
		<path d="M273.693,230.013h-35.387c-4.58,0-8.294,3.713-8.294,8.294v35.387c0,4.58,3.713,8.294,8.294,8.294h35.387    c4.58,0,8.294-3.713,8.294-8.294v-35.387C281.987,233.726,278.274,230.013,273.693,230.013z M265.4,265.4H246.6V246.6H265.4V265.4    z"/>
	</g>
</g>
<g>
	<g>
		<path d="M105.607,230.013h-9.4v-9.4c0-4.58-3.713-8.294-8.294-8.294c-4.58,0-8.294,3.713-8.294,8.294v9.4h-9.4    c-4.58,0-8.294,3.713-8.294,8.294v35.387c0,4.58,3.713,8.294,8.294,8.294h9.4v9.4c0,4.58,3.713,8.294,8.294,8.294    c4.58,0,8.294-3.713,8.294-8.294v-9.4h9.4c4.58,0,8.294-3.713,8.294-8.294v-35.387    C113.901,233.726,110.187,230.013,105.607,230.013z M97.313,265.4H78.514V246.6h18.799V265.4z"/>
	</g>
</g>
<g>
	<g>
		<path d="M185.227,79.62h-17.693c-4.58,0-8.294,3.713-8.294,8.294c0,4.58,3.713,8.294,8.294,8.294h17.693    c4.58,0,8.294-3.713,8.294-8.294C193.521,83.333,189.807,79.62,185.227,79.62z"/>
	</g>
</g>
<g>
	<g>
		<path d="M132.147,79.62h-17.693c-0.187,0-0.369,0.016-0.553,0.028V70.22c0-4.58-3.713-8.294-8.294-8.294H70.22    c-4.58,0-8.294,3.713-8.294,8.294v35.387c0,4.58,3.713,8.294,8.294,8.294h9.427c-0.012,0.184-0.028,0.366-0.028,0.553v17.693    c0,4.58,3.713,8.294,8.294,8.294c4.58,0,8.294-3.713,8.294-8.294v-17.693c0-0.187-0.016-0.369-0.028-0.553h9.427    c4.58,0,8.294-3.713,8.294-8.294V96.18c0.184,0.012,0.366,0.028,0.553,0.028h17.693c4.58,0,8.294-3.713,8.294-8.294    C140.441,83.333,136.727,79.62,132.147,79.62z M97.313,97.313H78.514V78.514h18.799V97.313z"/>
	</g>
</g>
<g>
	<g>
		<path d="M344.466,79.62h-17.693c-4.58,0-8.294,3.713-8.294,8.294c0,4.58,3.713,8.294,8.294,8.294h17.693    c4.58,0,8.294-3.713,8.294-8.294C352.76,83.333,349.047,79.62,344.466,79.62z"/>
	</g>
</g>
<g>
	<g>
		<path d="M291.387,79.62h-9.4v-9.4c0-4.58-3.713-8.294-8.294-8.294h-35.387c-4.58,0-8.294,3.713-8.294,8.294v9.4h-9.4    c-4.58,0-8.294,3.713-8.294,8.294c0,4.58,3.713,8.294,8.294,8.294h9.4v9.4c0,4.58,3.713,8.294,8.294,8.294h35.387    c4.58,0,8.294-3.713,8.294-8.294v-9.4h9.4c4.58,0,8.294-3.713,8.294-8.294C299.68,83.333,295.967,79.62,291.387,79.62z     M265.4,97.313H246.6V78.514H265.4V97.313z"/>
	</g>
</g>
<g>
	<g>
		<path d="M185.227,415.793h-17.693c-4.58,0-8.294,3.713-8.294,8.294c0,4.58,3.713,8.294,8.294,8.294h17.693    c4.58,0,8.294-3.713,8.294-8.294C193.521,419.506,189.807,415.793,185.227,415.793z"/>
	</g>
</g>
<g>
	<g>
		<path d="M132.147,415.793h-17.693c-0.187,0-0.369,0.015-0.553,0.028v-9.427c0-4.58-3.713-8.294-8.294-8.294H96.18    c0.012-0.184,0.028-0.366,0.028-0.553v-17.693c0-4.58-3.713-8.294-8.294-8.294c-4.58,0-8.294,3.713-8.294,8.294v17.693    c0,0.187,0.016,0.369,0.028,0.553H70.22c-4.58,0-8.294,3.713-8.294,8.294v35.387c0,4.58,3.713,8.294,8.294,8.294h35.387    c4.58,0,8.294-3.713,8.294-8.294v-9.427c0.184,0.012,0.366,0.028,0.553,0.028h17.693c4.58,0,8.294-3.713,8.294-8.294    C140.441,419.506,136.727,415.793,132.147,415.793z M97.313,433.486H78.514v-18.799h18.799V433.486z"/>
	</g>
</g>
<g>
	<g>
		<path d="M344.466,415.793h-17.693c-4.58,0-8.294,3.713-8.294,8.294c0,4.58,3.713,8.294,8.294,8.294h17.693    c4.58,0,8.294-3.713,8.294-8.294C352.76,419.506,349.047,415.793,344.466,415.793z"/>
	</g>
</g>
<g>
	<g>
		<path d="M291.387,415.793h-9.4v-9.4c0-4.58-3.713-8.294-8.294-8.294h-35.387c-4.58,0-8.294,3.713-8.294,8.294v9.4h-9.4    c-4.58,0-8.294,3.713-8.294,8.294c0,4.58,3.713,8.294,8.294,8.294h9.4v9.4c0,4.58,3.713,8.294,8.294,8.294h35.387    c4.58,0,8.294-3.713,8.294-8.294v-9.4h9.4c4.58,0,8.294-3.713,8.294-8.294C299.68,419.506,295.967,415.793,291.387,415.793z     M265.4,433.486H246.6v-18.799H265.4V433.486z"/>
	</g>
</g>
<g>
	<g>
		<path d="M87.914,318.479c-4.58,0-8.294,3.713-8.294,8.294v17.693c0,4.58,3.713,8.294,8.294,8.294c4.58,0,8.294-3.713,8.294-8.294    v-17.693C96.207,322.193,92.494,318.479,87.914,318.479z"/>
	</g>
</g>
<g>
	<g>
		<path d="M87.914,159.24c-4.58,0-8.294,3.713-8.294,8.294v17.693c0,4.58,3.713,8.294,8.294,8.294c4.58,0,8.294-3.713,8.294-8.294    v-17.693C96.207,162.953,92.494,159.24,87.914,159.24z"/>
	</g>
</g>
<g>
	<g>
		<path d="M424.086,318.479c-4.58,0-8.294,3.713-8.294,8.294v17.693c0,4.58,3.713,8.294,8.294,8.294c4.58,0,8.294-3.713,8.294-8.294    v-17.693C432.38,322.193,428.667,318.479,424.086,318.479z"/>
	</g>
</g>
<g>
	<g>
		<path d="M424.086,159.24c-4.58,0-8.294,3.713-8.294,8.294v17.693c0,4.58,3.713,8.294,8.294,8.294c4.58,0,8.294-3.713,8.294-8.294    v-17.693C432.38,162.953,428.667,159.24,424.086,159.24z"/>
	</g>
</g>
<g>
</g>
<g>
</g>
<g>
</g>
<g>
</g>
<g>
</g>
<g>
</g>
<g>
</g>
<g>
</g>
<g>
</g>
<g>
</g>
<g>
</g>
<g>
</g>
<g>
</g>
<g>
</g>
<g>
</g>
</svg>
