<?xml version="1.0" encoding="iso-8859-1"?>
<!-- Generator: Adobe Illustrator 19.0.0, SVG Export Plug-In . SVG Version: 6.00 Build 0)  -->
<svg xmlns="http://www.w3.org/2000/svg" xmlns:xlink="http://www.w3.org/1999/xlink" version="1.1" id="Layer_1" x="0px" y="0px" viewBox="0 0 512 512" style="enable-background:new 0 0 512 512;" xml:space="preserve">
<g>
	<g>
		<path d="M379.853,0H132.147c-24.085,0-43.68,19.595-43.68,43.68V468.32c0,24.085,19.595,43.68,43.68,43.68h247.706    c24.085,0,43.68-19.595,43.68-43.68V43.68C423.533,19.595,403.938,0,379.853,0z M406.946,468.32    c0,14.939-12.154,27.093-27.093,27.093H132.147c-14.939,0-27.093-12.154-27.093-27.093V43.68    c0-14.939,12.154-27.093,27.093-27.093h247.706c14.939,0,27.093,12.154,27.093,27.093V468.32z"/>
	</g>
</g>
<g>
	<g>
		<path d="M300.233,70.773H149.84c-14.329,0-25.987,11.658-25.987,25.987v35.387c0,14.329,11.658,25.987,25.987,25.987h150.393    c14.329,0,25.987-11.658,25.987-25.987V96.76C326.22,82.431,314.563,70.773,300.233,70.773z M309.633,132.147    c0,5.183-4.216,9.4-9.4,9.4H149.84c-5.183,0-9.4-4.217-9.4-9.4V96.76c0-5.183,4.217-9.4,9.4-9.4h150.393    c5.183,0,9.4,4.216,9.4,9.4V132.147z"/>
	</g>
</g>
<g>
	<g>
		<path d="M282.54,106.16H167.533c-4.58,0-8.294,3.713-8.294,8.294c0,4.58,3.713,8.294,8.294,8.294H282.54    c4.58,0,8.294-3.713,8.294-8.294C290.834,109.873,287.12,106.16,282.54,106.16z"/>
	</g>
</g>
<g>
	<g>
		<path d="M385.717,108.589l-26.54-26.54c-3.239-3.239-8.491-3.239-11.728,0c-3.239,3.239-3.239,8.491,0,11.728l20.676,20.676    l-20.676,20.676c-3.239,3.239-3.239,8.491,0,11.728c1.619,1.619,3.742,2.43,5.864,2.43c2.122,0,4.245-0.809,5.864-2.43    l26.54-26.54C388.956,117.079,388.956,111.827,385.717,108.589z"/>
	</g>
</g>
<g>
	<g>
		<path d="M300.233,176.933H149.84c-14.329,0-25.987,11.658-25.987,25.987v35.387c0,14.329,11.658,25.987,25.987,25.987h150.393    c14.329,0,25.987-11.658,25.987-25.987V202.92C326.22,188.591,314.563,176.933,300.233,176.933z M309.633,238.307    c0,5.183-4.216,9.4-9.4,9.4H149.84c-5.183,0-9.4-4.216-9.4-9.4V202.92c0-5.183,4.217-9.4,9.4-9.4h150.393    c5.183,0,9.4,4.217,9.4,9.4V238.307z"/>
	</g>
</g>
<g>
	<g>
		<path d="M238.307,212.32h-70.773c-4.58,0-8.294,3.713-8.294,8.294c0,4.58,3.713,8.294,8.294,8.294h70.773    c4.58,0,8.294-3.713,8.294-8.294C246.6,216.033,242.887,212.32,238.307,212.32z"/>
	</g>
</g>
<g>
	<g>
		<path d="M385.717,214.749l-26.54-26.54c-3.239-3.239-8.491-3.239-11.728,0c-3.239,3.239-3.239,8.491,0,11.728l20.676,20.676    l-20.676,20.676c-3.239,3.239-3.239,8.491,0,11.728c1.619,1.619,3.742,2.43,5.864,2.43c2.122,0,4.245-0.809,5.864-2.43    l26.54-26.54C388.956,223.239,388.956,217.987,385.717,214.749z"/>
	</g>
</g>
<g>
	<g>
		<path d="M300.233,283.093H149.84c-14.329,0-25.987,11.658-25.987,25.987v35.387c0,14.329,11.658,25.987,25.987,25.987h150.393    c14.329,0,25.987-11.658,25.987-25.987V309.08C326.22,294.751,314.563,283.093,300.233,283.093z M309.633,344.466    c0,5.183-4.216,9.4-9.4,9.4H149.84c-5.183,0-9.4-4.217-9.4-9.4V309.08c0-5.183,4.217-9.4,9.4-9.4h150.393    c5.183,0,9.4,4.216,9.4,9.4V344.466z"/>
	</g>
</g>
<g>
	<g>
		<path d="M282.54,318.479H167.533c-4.58,0-8.294,3.713-8.294,8.294c0,4.58,3.713,8.294,8.294,8.294H282.54    c4.58,0,8.294-3.713,8.294-8.294C290.834,322.193,287.12,318.479,282.54,318.479z"/>
	</g>
</g>
<g>
	<g>
		<path d="M385.717,320.909l-26.54-26.54c-3.239-3.239-8.491-3.239-11.728,0c-3.239,3.239-3.239,8.491,0,11.728l20.676,20.676    l-20.676,20.676c-3.239,3.239-3.239,8.491,0,11.728c1.619,1.619,3.742,2.43,5.864,2.43c2.122,0,4.245-0.809,5.864-2.43    l26.54-26.54C388.956,329.398,388.956,324.147,385.717,320.909z"/>
	</g>
</g>
<g>
	<g>
		<path d="M300.233,389.253H149.84c-14.329,0-25.987,11.658-25.987,25.987v35.387c0,14.329,11.658,25.987,25.987,25.987h150.393    c14.329,0,25.987-11.658,25.987-25.987V415.24C326.22,400.91,314.563,389.253,300.233,389.253z M309.633,450.626    c0,5.183-4.216,9.4-9.4,9.4H149.84c-5.183,0-9.4-4.216-9.4-9.4V415.24c0-5.183,4.217-9.4,9.4-9.4h150.393    c5.183,0,9.4,4.217,9.4,9.4V450.626z"/>
	</g>
</g>
<g>
	<g>
		<path d="M238.307,424.639h-70.773c-4.58,0-8.294,3.713-8.294,8.294c0,4.58,3.713,8.294,8.294,8.294h70.773    c4.58,0,8.294-3.713,8.294-8.294C246.6,428.353,242.887,424.639,238.307,424.639z"/>
	</g>
</g>
<g>
	<g>
		<path d="M385.717,427.069l-26.54-26.54c-3.239-3.239-8.491-3.239-11.728,0c-3.239,3.239-3.239,8.491,0,11.728l20.676,20.676    l-20.676,20.676c-3.239,3.239-3.239,8.491,0,11.728c1.619,1.619,3.742,2.43,5.864,2.43c2.122,0,4.245-0.809,5.864-2.43    l26.54-26.54C388.956,435.558,388.956,430.307,385.717,427.069z"/>
	</g>
</g>
<g>
	<g>
		<path d="M309.08,35.387H132.147c-4.58,0-8.294,3.713-8.294,8.294c0,4.58,3.713,8.294,8.294,8.294H309.08    c4.58,0,8.294-3.713,8.294-8.294C317.374,39.1,313.66,35.387,309.08,35.387z"/>
	</g>
</g>
<g>
	<g>
		<path d="M379.853,35.387h-35.387c-4.58,0-8.294,3.713-8.294,8.294c0,4.58,3.713,8.294,8.294,8.294h35.387    c4.58,0,8.294-3.713,8.294-8.294C388.147,39.1,384.433,35.387,379.853,35.387z"/>
	</g>
</g>
<g>
</g>
<g>
</g>
<g>
</g>
<g>
</g>
<g>
</g>
<g>
</g>
<g>
</g>
<g>
</g>
<g>
</g>
<g>
</g>
<g>
</g>
<g>
</g>
<g>
</g>
<g>
</g>
<g>
</g>
</svg>
