<?xml version="1.0" encoding="iso-8859-1"?>
<!-- Generator: Adobe Illustrator 19.0.0, SVG Export Plug-In . SVG Version: 6.00 Build 0)  -->
<svg xmlns="http://www.w3.org/2000/svg" xmlns:xlink="http://www.w3.org/1999/xlink" version="1.1" id="Layer_1" x="0px" y="0px" viewBox="0 0 512 512" style="enable-background:new 0 0 512 512;" xml:space="preserve">
<g>
	<g>
		<path d="M415.24,0H96.76C72.675,0,53.08,19.595,53.08,43.68V468.32c0,24.085,19.595,43.68,43.68,43.68H415.24    c24.085,0,43.68-19.595,43.68-43.68V43.68C458.92,19.595,439.325,0,415.24,0z M442.333,468.32    c0,14.939-12.154,27.093-27.093,27.093H96.76c-14.939,0-27.093-12.154-27.093-27.093v-27.093h372.665V468.32z M442.333,424.639    H69.667V87.361h372.665V424.639z M442.333,70.773H69.667V43.68c0-14.939,12.154-27.093,27.093-27.093H415.24    c14.939,0,27.093,12.154,27.093,27.093V70.773z"/>
	</g>
</g>
<g>
	<g>
		<path d="M282.54,35.387h-53.08c-4.58,0-8.294,3.713-8.294,8.294c0,4.58,3.713,8.294,8.294,8.294h53.08    c4.58,0,8.294-3.713,8.294-8.294C290.834,39.1,287.12,35.387,282.54,35.387z"/>
	</g>
</g>
<g>
	<g>
		<path d="M256,452.285c-8.841,0-16.035,7.193-16.035,16.035s7.193,16.035,16.035,16.035c8.841,0,16.035-7.193,16.035-16.035    S264.841,452.285,256,452.285z M256,468.873c-0.305,0-0.553-0.248-0.553-0.553s0.248-0.553,0.553-0.553    c0.305,0,0.553,0.248,0.553,0.553S256.305,468.873,256,468.873z"/>
	</g>
</g>
<g>
	<g>
		<path d="M132.147,389.253H96.76c-4.58,0-8.294,3.713-8.294,8.294c0,4.58,3.713,8.294,8.294,8.294h35.387    c4.58,0,8.294-3.713,8.294-8.294C140.441,392.966,136.727,389.253,132.147,389.253z"/>
	</g>
</g>
<g>
	<g>
		<path d="M202.92,389.253h-35.387c-4.58,0-8.294,3.713-8.294,8.294c0,4.58,3.713,8.294,8.294,8.294h35.387    c4.58,0,8.294-3.713,8.294-8.294C211.214,392.966,207.5,389.253,202.92,389.253z"/>
	</g>
</g>
<g>
	<g>
		<path d="M273.693,389.253h-35.387c-4.58,0-8.294,3.713-8.294,8.294c0,4.58,3.713,8.294,8.294,8.294h35.387    c4.58,0,8.294-3.713,8.294-8.294C281.987,392.966,278.274,389.253,273.693,389.253z"/>
	</g>
</g>
<g>
	<g>
		<path d="M344.466,389.253H309.08c-4.58,0-8.294,3.713-8.294,8.294c0,4.58,3.713,8.294,8.294,8.294h35.387    c4.58,0,8.294-3.713,8.294-8.294C352.76,392.966,349.047,389.253,344.466,389.253z"/>
	</g>
</g>
<g>
	<g>
		<path d="M415.24,389.253h-35.387c-4.58,0-8.294,3.713-8.294,8.294c0,4.58,3.713,8.294,8.294,8.294h35.387    c4.58,0,8.294-3.713,8.294-8.294C423.533,392.966,419.82,389.253,415.24,389.253z"/>
	</g>
</g>
<g>
	<g>
		<path d="M238.307,291.94H96.76c-4.58,0-8.294,3.713-8.294,8.294v53.08c0,4.58,3.713,8.294,8.294,8.294h141.546    c4.58,0,8.294-3.713,8.294-8.294v-53.08C246.6,295.653,242.887,291.94,238.307,291.94z M194.626,345.019h-89.572v-36.492h89.572    V345.019z M230.013,345.019h-18.799v-36.492h18.799V345.019z"/>
	</g>
</g>
<g>
	<g>
		<path d="M238.307,203.473H96.76c-4.58,0-8.294,3.713-8.294,8.294v53.08c0,4.58,3.713,8.294,8.294,8.294h141.546    c4.58,0,8.294-3.713,8.294-8.294v-53.08C246.6,207.186,242.887,203.473,238.307,203.473z M194.626,220.613v35.94h-89.572V220.06    h89.6C194.642,220.244,194.626,220.427,194.626,220.613z M230.013,256.553h-18.799v-35.94c0-0.187-0.016-0.369-0.028-0.553h18.827    V256.553z"/>
	</g>
</g>
<g>
	<g>
		<path d="M238.307,115.006H96.76c-4.58,0-8.294,3.713-8.294,8.294v53.08c0,4.58,3.713,8.294,8.294,8.294h141.546    c4.58,0,8.294-3.713,8.294-8.294V123.3C246.6,118.72,242.887,115.006,238.307,115.006z M194.626,168.086h-89.572v-36.492h89.572    V168.086z M230.013,168.086h-18.799v-36.492h18.799V168.086z"/>
	</g>
</g>
<g>
	<g>
		<path d="M415.24,123.853H273.693c-4.58,0-8.294,3.713-8.294,8.294c0,4.58,3.713,8.294,8.294,8.294H415.24    c4.58,0,8.294-3.713,8.294-8.294C423.533,127.567,419.82,123.853,415.24,123.853z"/>
	</g>
</g>
<g>
	<g>
		<path d="M362.16,159.24h-88.466c-4.58,0-8.294,3.713-8.294,8.294c0,4.58,3.713,8.294,8.294,8.294h88.466    c4.58,0,8.294-3.713,8.294-8.294C370.454,162.953,366.74,159.24,362.16,159.24z"/>
	</g>
</g>
<g>
	<g>
		<path d="M415.24,212.32H273.693c-4.58,0-8.294,3.713-8.294,8.294c0,4.58,3.713,8.294,8.294,8.294H415.24    c4.58,0,8.294-3.713,8.294-8.294C423.533,216.033,419.82,212.32,415.24,212.32z"/>
	</g>
</g>
<g>
	<g>
		<path d="M362.16,247.706h-88.466c-4.58,0-8.294,3.713-8.294,8.294c0,4.58,3.713,8.294,8.294,8.294h88.466    c4.58,0,8.294-3.713,8.294-8.294C370.454,251.42,366.74,247.706,362.16,247.706z"/>
	</g>
</g>
<g>
	<g>
		<path d="M415.24,300.786H273.693c-4.58,0-8.294,3.713-8.294,8.294c0,4.58,3.713,8.294,8.294,8.294H415.24    c4.58,0,8.294-3.713,8.294-8.294C423.533,304.5,419.82,300.786,415.24,300.786z"/>
	</g>
</g>
<g>
	<g>
		<path d="M362.16,336.173h-88.466c-4.58,0-8.294,3.713-8.294,8.294c0,4.58,3.713,8.294,8.294,8.294h88.466    c4.58,0,8.294-3.713,8.294-8.294C370.454,339.886,366.74,336.173,362.16,336.173z"/>
	</g>
</g>
<g>
</g>
<g>
</g>
<g>
</g>
<g>
</g>
<g>
</g>
<g>
</g>
<g>
</g>
<g>
</g>
<g>
</g>
<g>
</g>
<g>
</g>
<g>
</g>
<g>
</g>
<g>
</g>
<g>
</g>
</svg>
